<?xml version="1.0" encoding="UTF-8"?>
<svg version="1.1" xmlns="http://www.w3.org/2000/svg" width="2215" height="1828">
<path d="M0 0 C1.39412109 1.11955078 1.39412109 1.11955078 2.81640625 2.26171875 C14.56078818 11.78372855 25.94316923 21.6890793 37 32 C37.6482373 32.60312012 38.29647461 33.20624023 38.96435547 33.82763672 C41.08246187 35.79956464 43.19803092 37.77417264 45.3125 39.75 C45.97040527 40.36399658 46.62831055 40.97799316 47.30615234 41.6105957 C53.42122655 47.34318801 59.32565239 53.15580921 64.79296875 59.51171875 C67.15508309 62.17484589 69.58442853 64.7640027 72.02709961 67.35302734 C77.43408694 73.08647698 82.69184987 78.85441179 87.609375 85.01953125 C89.44896099 87.31300201 91.31139985 89.5743461 93.203125 91.82421875 C101.02634879 101.15148794 108.35104946 110.71969329 115.35693359 120.67431641 C117.01139425 123.01612803 118.68556283 125.34277781 120.36328125 127.66796875 C134.20944204 146.98283096 146.47188142 167.29084177 157.56884766 188.29785156 C159.01430074 191.02700112 160.48059385 193.74419904 161.94921875 196.4609375 C195.4021693 258.83817759 227.23011437 341.9297701 226 414 C222.32478837 413.79036226 221.15844752 413.16901068 218.59765625 410.4375 C217.74019056 409.30092636 216.89596851 408.15428649 216.0625 407 C215.09986334 405.72099211 214.13490884 404.44372632 213.16796875 403.16796875 C212.6579834 402.49040527 212.14799805 401.8128418 211.62255859 401.11474609 C208.80077264 397.43699859 205.83518047 393.87907863 202.875 390.3125 C201.67826294 388.86598673 200.48164555 387.41937446 199.28515625 385.97265625 C198.72070801 385.29090332 198.15625977 384.60915039 197.57470703 383.90673828 C195.47508831 381.36440925 193.39353488 378.80755092 191.3125 376.25 C183.37855164 366.54481963 175.20134717 357.04153338 167.03125 347.53515625 C165.02226658 345.19629155 163.02292467 342.84971194 161.03125 340.49609375 C155.34325207 333.7889728 149.51876272 327.24874561 143.50634766 320.83032227 C140.76700506 317.90595608 138.05723185 314.97053906 135.4375 311.9375 C131.01188746 306.82106014 126.39708258 301.87945548 121.79089355 296.92633057 C120.63449525 295.68247919 119.47891795 294.4378638 118.32434082 293.19232178 C107.42525627 281.44822198 96.20338446 270.04553243 84.86083984 258.73046875 C82.45292584 256.32832492 80.04963385 253.92161405 77.64756775 251.51362419 C75.30915068 249.17070216 72.96690798 246.83162017 70.625 244.4921875 C69.77591064 243.64107391 68.92682129 242.78996033 68.05200195 241.91305542 C63.72773186 237.60564167 59.33370485 233.45087603 54.70629883 229.4704895 C52.6776585 227.72220587 50.72162347 225.90797488 48.78125 224.0625 C48.07613281 223.39476562 47.37101562 222.72703125 46.64453125 222.0390625 C45.21484375 220.6796875 43.78515625 219.3203125 42.35546875 217.9609375 C37.66774817 213.52174324 32.89157313 209.21327164 28 205 C27.42910645 204.50693359 26.85821289 204.01386719 26.27001953 203.50585938 C22.78884876 200.50587608 19.29400388 197.52181477 15.79931641 194.53759766 C14.6391774 193.54620614 13.47992905 192.55377096 12.32177734 191.56005859 C5.21069337 185.4590353 -2.02380568 179.55920024 -9.41796875 173.8046875 C-11.81464618 171.9367562 -14.19058509 170.04662514 -16.55078125 168.1328125 C-25.70925479 160.70789389 -35.10250835 153.6539429 -44.63867188 146.72167969 C-46.86569032 145.0979272 -49.08245839 143.46118907 -51.296875 141.8203125 C-64.16952652 132.33309728 -77.53471038 123.61536143 -91 115 C-92.3912207 114.10982178 -92.3912207 114.10982178 -93.81054688 113.20166016 C-170.87282698 64.14778822 -256.64384396 30.10270946 -348 22 C-349.16402344 21.89196045 -349.16402344 21.89196045 -350.3515625 21.78173828 C-355.23088645 21.34459353 -360.10427679 21.11977021 -365 21 C-366.07008301 20.97276855 -367.14016602 20.94553711 -368.24267578 20.91748047 C-437.96430606 19.42886234 -505.1150205 34.87954906 -568 65 C-568.86818359 65.41217773 -569.73636719 65.82435547 -570.63085938 66.24902344 C-607.56814423 83.86592217 -641.7911681 107.64708775 -673 134 C-674.20310729 135.00653158 -675.40623163 136.01304279 -676.609375 137.01953125 C-689.14520053 147.5708259 -700.9550753 158.88025149 -712.5625 170.4375 C-713.30016602 171.17049316 -714.03783203 171.90348633 -714.79785156 172.65869141 C-718.85063822 176.72347948 -722.72747006 180.88532132 -726.47436523 185.23364258 C-728.35264364 187.4082856 -730.30043776 189.51425348 -732.25 191.625 C-740.05991088 200.27597821 -747.07146328 209.63711254 -754 219 C-753.18144531 218.6596875 -752.36289062 218.319375 -751.51953125 217.96875 C-668.65909133 185.13890236 -572.22537877 187.55520336 -318.94970703 242.29638672 C-271.46675902 263.01726467 -271.46675902 263.01726467 -262.6171875 279.99609375 C-261.41315398 283.90539245 -261.49794792 287.19198065 -263 291 C-266.74812343 295.94022 -272.06556668 298.49963029 -278 300 C-282.0906169 300.45300623 -286.13732277 300.47528284 -290.25 300.4375 C-291.44109375 300.42920166 -292.6321875 300.42090332 -293.859375 300.41235352 C-306.34830436 300.18195769 -318.45250923 298.43540929 -330.75201416 296.37414551 C-335.16959167 295.6389021 -339.59103851 294.92724303 -344.01171875 294.2109375 C-349.78987674 293.27423103 -355.56738564 292.33432269 -361.34179688 291.37475586 C-362.24388382 291.22555695 -363.14597076 291.07635803 -364.07539368 290.92263794 C-365.7636951 290.64315093 -367.45169992 290.3618631 -369.139328 290.07833862 C-378.75184215 288.49116525 -388.06618819 287.83379659 -397.81640625 287.796875 C-399.04925858 287.78986069 -400.2821109 287.78284637 -401.55232239 287.77561951 C-405.55575479 287.75807593 -409.5590372 287.75117932 -413.5625 287.75 C-414.24600777 287.74955814 -414.92951553 287.74911629 -415.63373566 287.74866104 C-439.19996804 287.74066979 -462.55888069 288.4316963 -486 291 C-486.80211914 291.08721313 -487.60423828 291.17442627 -488.43066406 291.26428223 C-586.18667845 300.06277653 -586.18667845 300.06277653 -672 341 C-672.64582031 341.54140625 -673.29164063 342.0828125 -673.95703125 342.640625 C-679.20120574 347.36590222 -682.44726056 352.95863507 -683.2265625 360.06640625 C-682.74360152 369.26124031 -675.32764817 377.85991808 -669 384 C-662.94643193 388.77543302 -656.68165544 391.56571004 -649.375 393.875 C-648.34938965 394.20669189 -647.3237793 394.53838379 -646.26708984 394.88012695 C-620.57781263 403.00188193 -594.42605499 408.42296392 -567.87890625 412.86816406 C-530.61241711 419.14064546 -530.61241711 419.14064546 -519 427 C-518.071875 427.598125 -517.14375 428.19625 -516.1875 428.8125 C-507.4232116 437.5767884 -504.75194568 447.53025476 -504.6875 459.625 C-504.87144239 473.74064616 -504.87144239 473.74064616 -509 480.0625 C-514.3193075 483.49788609 -519.73995116 482.45052308 -525.78564453 481.24536133 C-529.44432442 480.39411785 -533.07902517 479.45556579 -536.71060181 478.49591064 C-539.10584761 477.86355606 -541.50466818 477.24690884 -543.9050293 476.63427734 C-547.88441681 475.61729865 -551.86120207 474.59060429 -555.8371582 473.56030273 C-600.24458721 462.05617703 -644.07856784 458.62318481 -686.9375 477.6875 C-718.49164095 491.62895935 -756.28810204 485.05426506 -787.75634766 473.23168945 C-817.74441743 461.42612566 -843.17702014 443.02246382 -865.75 420.25 C-870.0131997 415.95025858 -874.36952474 411.89702212 -879 408 C-879.73734375 407.33871094 -880.4746875 406.67742188 -881.234375 405.99609375 C-904.07067745 386.17389954 -933.55686828 375.03932818 -961.43554688 364.37158203 C-965.97489883 362.62486427 -970.49211259 360.82619288 -975 359 C-974.27323244 351.66873227 -972.67623399 344.60490939 -971 337.4375 C-970.77240997 336.46399597 -970.77240997 336.46399597 -970.54022217 335.4708252 C-957.62601758 280.54665802 -937.08080302 226.98685783 -909 178 C-908.27925293 176.72431152 -908.27925293 176.72431152 -907.54394531 175.42285156 C-891.03604 146.26873118 -871.79600279 118.52986247 -850.43261719 92.73681641 C-848.37117868 90.23765595 -846.34583293 87.70954629 -844.3125 85.1875 C-840.47313768 80.49572879 -836.43797632 76.00992589 -832.33203125 71.55078125 C-830.36500972 69.39924849 -828.45446871 67.21708027 -826.5625 65 C-823.20207734 61.12074723 -819.56625678 57.53405394 -815.91308594 53.93457031 C-813.58359909 51.62768416 -811.34339535 49.32476224 -809.3125 46.75 C-806.85526092 43.82787785 -804.20434717 41.51822749 -801.3046875 39.05078125 C-798.59372514 36.63848423 -796.04549842 34.08354315 -793.5 31.5 C-789.1626426 27.11627343 -784.70100944 22.98898047 -780 19 C-778.96143394 18.09858363 -777.92375043 17.19614991 -776.88671875 16.29296875 C-768.78862181 9.26059241 -760.49821967 2.54090956 -752 -4 C-751.18515137 -4.63019043 -750.37030273 -5.26038086 -749.53076172 -5.90966797 C-739.5577272 -13.61602051 -729.62146651 -21.20644208 -719 -28 C-717.53401461 -28.96702152 -716.06928213 -29.93594377 -714.60546875 -30.90625 C-637.54861221 -81.80930716 -549.91573142 -115.31392403 0 0 Z " fill="#3DC1D4" transform="translate(1482,190)"/>
<path d="M0 0 C0.5475293 0.41765625 1.09505859 0.8353125 1.65917969 1.265625 C12.56302965 9.71971131 22.05531197 19.8641267 31.7109375 29.67919922 C39.90314027 37.98498842 47.56383759 44.22525173 57.75 50 C58.8932373 50.65081543 60.03647461 51.30163086 61.21435547 51.97216797 C64.7979812 54.0024645 68.39638276 56.00544669 72 58 C73.65080566 58.91507324 73.65080566 58.91507324 75.33496094 59.84863281 C92.40629178 69.21760892 109.90899818 76.77302632 128.03686523 83.80175781 C130.43203345 84.77032382 132.7160971 85.79783561 135 87 C134.47199799 96.23093175 132.13033536 104.7794372 129.625 113.625 C129.40480194 114.40978729 129.18460388 115.19457458 128.95773315 116.00314331 C119.25644979 150.47460479 106.43075758 183.67881858 91 216 C90.52981445 216.98564941 90.05962891 217.97129883 89.57519531 218.98681641 C82.14101927 234.4566472 73.83500455 249.29160614 65 264 C64.04150825 265.61318714 63.0831652 267.22646264 62.125 268.83984375 C55.52781041 279.86879666 48.3904815 290.48914136 41 301 C40.46084961 301.76876465 39.92169922 302.5375293 39.36621094 303.32958984 C32.11395842 313.6323238 24.49905061 323.54845291 16.453125 333.24267578 C14.36384079 335.76933367 12.31028732 338.32467907 10.25 340.875 C6.65716766 345.2640461 2.91693674 349.49480786 -0.90234375 353.6875 C-2.69507446 355.66384372 -4.44795227 357.6645673 -6.1875 359.6875 C-18.26086372 373.50941985 -30.95257816 387.42181923 -44.9921875 399.2734375 C-47.12958676 401.11143453 -49.19658172 403.01782203 -51.26196289 404.93603516 C-56.36213925 409.66921725 -61.55977125 414.21128745 -66.984375 418.57421875 C-69.19642216 420.35359865 -71.39206839 422.14630553 -73.578125 423.95703125 C-99.54215393 445.40256771 -127.64688297 464.49707392 -157 481 C-157.89589844 481.5043457 -158.79179688 482.00869141 -159.71484375 482.52832031 C-231.79913553 522.89041135 -310.82321792 548.28689316 -417 559 C-418.20438721 559.08677002 -418.20438721 559.08677002 -419.43310547 559.17529297 C-499.21780667 564.77567712 -579.28471918 552.59428876 -754 483 C-754.79873535 482.55092285 -755.5974707 482.1018457 -756.42041016 481.63916016 C-789.37220006 463.11180505 -819.98913027 441.19578761 -849 417 C-849.51997559 416.5663916 -850.03995117 416.1327832 -850.57568359 415.68603516 C-865.09844198 403.52874228 -878.65858301 390.42884572 -892.0625 377.0625 C-892.60347321 376.52420563 -893.14444641 375.98591125 -893.70181274 375.43130493 C-899.68838078 369.46726033 -905.51643771 363.43590557 -911 357 C-912.45445517 355.39231627 -913.91220895 353.78760285 -915.375 352.1875 C-920.10576093 346.93819023 -924.56997052 341.50376055 -929 336 C-929.92538408 334.86686303 -930.85118393 333.73406551 -931.77734375 332.6015625 C-952.45374819 307.20296075 -970.96834467 279.54859866 -987 251 C-987.52078125 250.07654785 -988.0415625 249.1530957 -988.578125 248.20166016 C-1025.83981891 181.76143712 -1064.15998943 92.26785243 -1062 14 C-1058.38990947 14.23937876 -1057.1235497 14.87933697 -1054.4921875 17.44921875 C-1053.60673486 18.51796144 -1052.73507947 19.59823391 -1051.875 20.6875 C-1051.40126953 21.26693359 -1050.92753906 21.84636719 -1050.43945312 22.44335938 C-1048.94343943 24.28323883 -1047.46859893 26.13818298 -1046 28 C-1045.53754883 28.58604004 -1045.07509766 29.17208008 -1044.59863281 29.77587891 C-1042.77028226 32.09938063 -1040.9464005 34.42623845 -1039.13085938 36.75976562 C-1035.52707179 41.37856024 -1031.7860733 45.8639451 -1027.98217773 50.31860352 C-1025.13152559 53.65732879 -1022.32889632 57.02810345 -1019.5625 60.4375 C-1014.66619146 66.44898202 -1009.61392076 72.32043431 -1004.55273438 78.19287109 C-1003.01354018 79.98424144 -1001.48212881 81.78195887 -999.953125 83.58203125 C-994.2467307 90.29202106 -988.42992646 96.86942635 -982.44921875 103.3359375 C-980.43126221 105.53090777 -978.45196555 107.7466621 -976.5 110 C-972.2618093 114.88247622 -967.87305633 119.62632968 -963.49121094 124.37939453 C-961.98251171 126.01900578 -960.47910665 127.66334177 -958.9765625 129.30859375 C-953.60115006 135.18131386 -948.16050837 140.93646918 -942.44921875 146.48828125 C-940.54516095 148.44092745 -938.78235491 150.40547654 -937.015625 152.4765625 C-932.20840396 158.01628781 -926.99618598 163.15323737 -921.80297852 168.32739258 C-920.066064 170.058947 -918.33456111 171.79578359 -916.60351562 173.53320312 C-911.42731732 178.71218429 -906.24049874 183.79807039 -900.66577148 188.55249023 C-898.14186271 190.74569778 -895.83616479 193.10754208 -893.5 195.5 C-889.86440864 199.18488963 -886.15387033 202.70735904 -882.21484375 206.06640625 C-879.88663662 208.09896803 -877.62840339 210.19400071 -875.37011719 212.3034668 C-869.96407993 217.3526052 -864.45100761 222.15527795 -858.6796875 226.7890625 C-855.86746685 229.1093495 -853.18202737 231.53071134 -850.5 234 C-845.17019892 238.89379479 -839.63164422 243.46020517 -834 248 C-832.76994984 249.00934094 -831.5408379 250.01982598 -830.3125 251.03125 C-821.70539744 258.10277812 -812.93513275 264.89771271 -803.98242188 271.52490234 C-802.02625445 272.98046436 -800.08174836 274.45023189 -798.140625 275.92578125 C-745.29726271 316.0464826 -685.32469634 352.69765466 -623 376 C-621.93072266 376.40573242 -620.86144531 376.81146484 -619.75976562 377.22949219 C-529.75764534 411.1659775 -431.37320416 416.4628385 -323 387 C-322.02675781 386.70399902 -321.05351563 386.40799805 -320.05078125 386.10302734 C-262.65365741 368.37237377 -209.99547986 338.44398317 -164 300 C-163.4519873 299.54367187 -162.90397461 299.08734375 -162.33935547 298.6171875 C-154.99585943 292.48496865 -148.01476407 286.17117668 -141.328125 279.328125 C-139.52286254 277.52286254 -137.74798706 275.88985821 -135.75 274.3125 C-132.75927689 271.79757375 -130.36965571 269.06279706 -127.84375 266.09375 C-126.01897913 264.02155257 -124.10811254 262.10765659 -122.125 260.1875 C-118.25197244 256.36650928 -114.85220746 252.26381087 -111.44921875 248.0234375 C-108.21773137 244.03432867 -104.886336 240.13396189 -101.54174805 236.23950195 C-99.00582944 233.30242309 -99.00582944 233.30242309 -97 230 C-97.62583984 230.17160645 -98.25167969 230.34321289 -98.89648438 230.52001953 C-129.35119822 238.85040922 -159.47948787 245.99849877 -191 249 C-192.05783691 249.10441406 -193.11567383 249.20882813 -194.20556641 249.31640625 C-232.37342477 252.90440067 -271.84582177 252.63091223 -310 249 C-310.67865112 248.93683594 -311.35730225 248.87367188 -312.05651855 248.80859375 C-383.24281835 242.16274733 -456.45557916 228.38680927 -522 199 C-522.79374023 198.6498584 -523.58748047 198.2997168 -524.40527344 197.93896484 C-568.2506707 178.52330926 -568.2506707 178.52330926 -576.18359375 161.453125 C-577.20863924 158.373084 -577.39586076 156.23286289 -577 153 C-573.9011057 146.92616718 -569.69004713 143.45911787 -563.44140625 140.98828125 C-549.87775718 136.92102691 -535.82493448 140.14452503 -522.38134766 143.20941162 C-518.24058754 144.14940322 -514.08959935 145.04132695 -509.9375 145.9296875 C-509.100979 146.10867584 -508.26445801 146.28766418 -507.40258789 146.47207642 C-494.35989016 149.22839053 -481.20810648 151.22129057 -468 153 C-466.59065186 153.19698486 -466.59065186 153.19698486 -465.15283203 153.39794922 C-391.69495666 163.2857093 -309.3694767 149.48481086 -238 132 C-237.31252686 131.83157593 -236.62505371 131.66315186 -235.91674805 131.48962402 C-195.36813084 121.84017002 -195.36813084 121.84017002 -162 98 C-161.278125 97.21625 -160.55625 96.4325 -159.8125 95.625 C-156.45664338 90.76479387 -155.39490568 85.94716087 -156.41796875 80.08984375 C-159.81061923 67.90817927 -170.76965368 58.69788092 -181.2734375 52.484375 C-196.85322442 44.00254258 -213.53160703 40.42341885 -230.875 37.5625 C-232.61826374 37.26620002 -234.36134357 36.96881613 -236.10424805 36.67041016 C-243.84921309 35.34875195 -251.60045156 34.06532065 -259.35237122 32.78520203 C-313.93886609 23.75849462 -313.93886609 23.75849462 -325 11 C-331.26792283 2.23072514 -333.35079486 -5.64355178 -333.3125 -16.3125 C-333.32861328 -17.19873047 -333.34472656 -18.08496094 -333.36132812 -18.99804688 C-333.36588854 -25.25037829 -332.67656467 -31.27425496 -330 -37 C-325.19793231 -40.20137846 -320.60440559 -39.67986003 -315.00604248 -38.62390137 C-310.16393923 -37.56788392 -305.36958155 -36.32695343 -300.57684326 -35.06811523 C-297.9024143 -34.36578618 -295.22461525 -33.67800783 -292.54541016 -32.99414062 C-288.9914855 -32.0862582 -285.43879592 -31.17381249 -281.88720703 -30.25683594 C-260.16230601 -24.5004601 -260.16230601 -24.5004601 -238 -21 C-236.95585938 -20.89042969 -235.91171875 -20.78085937 -234.8359375 -20.66796875 C-205.37768836 -17.9801723 -177.25631707 -22.66481394 -149.91577148 -33.87524414 C-142.66286282 -36.82881687 -135.79139266 -38.9170265 -128 -40 C-127.04996094 -40.13921875 -126.09992187 -40.2784375 -125.12109375 -40.421875 C-81.5867985 -45.39722303 -33.96609707 -26.03305213 0 0 Z " fill="#EB2261" transform="translate(1571,706)"/>
<path d="M0 0 C13.2 0 26.4 0 40 0 C44.63074041 14.31569748 49.14667858 28.6559487 53.5234375 43.05078125 C53.76109077 43.83195187 53.99874405 44.61312248 54.24359894 45.41796494 C56.46288161 52.71400614 58.67795887 60.01132009 60.88916016 67.30981445 C62.11433863 71.35308091 63.34296922 75.39528504 64.57374954 79.43684959 C65.03677804 80.95985487 65.49846612 82.48326838 65.95875168 84.00710487 C66.59605271 86.11682019 67.23771651 88.22516232 67.88037109 90.33325195 C68.24262787 91.52803665 68.60488464 92.72282135 68.9781189 93.95381165 C69.81915631 96.46091191 70.73306306 98.68769636 72 101 C74.95900573 90.72936029 77.91731399 80.45851983 80.875 70.1875 C81.09210758 69.43356209 81.30921516 68.67962418 81.53290176 67.90283966 C88.04839511 45.27605146 94.54533399 22.64423815 101 0 C111.56 0 122.12 0 133 0 C137.13827944 12.95426385 141.07732775 25.94302668 144.8359375 39.01171875 C145.36524114 40.84550345 145.89475591 42.67922721 146.42446899 44.51289368 C147.79756051 49.26808629 149.16784264 54.02408369 150.53747559 58.78027344 C151.94381028 63.66196226 153.3528911 68.54285829 154.76171875 73.42382812 C157.51045164 82.9484589 160.25620765 92.47394491 163 102 C167.64753559 87.7032392 172.14266464 73.36475936 176.5234375 58.984375 C176.76109077 58.20444687 176.99874405 57.42451874 177.24359894 56.62095642 C179.20892364 50.16906948 181.17024305 43.71596646 183.13061523 37.26257324 C184.60969656 32.39379171 186.09048901 27.5255377 187.57374954 22.65802765 C188.25900383 20.40679326 188.94172377 18.15480064 189.62435913 15.902771 C190.04289608 14.52856442 190.46155974 13.15439641 190.88037109 11.78027344 C191.24262787 10.58770935 191.60488464 9.39514526 191.9781189 8.16644287 C192.86956012 5.4041864 193.92202436 2.69493911 195 0 C207.87 0 220.74 0 234 0 C233.36530236 3.80818581 232.86227309 6.78742861 231.65576172 10.31323242 C231.38331635 11.11669098 231.11087097 11.92014954 230.83016968 12.74795532 C230.53301056 13.60843475 230.23585144 14.46891418 229.9296875 15.35546875 C229.46062485 16.73126602 229.46062485 16.73126602 228.98208618 18.13485718 C227.9511473 21.15405564 226.91324847 24.17080811 225.875 27.1875 C225.14753171 29.31168035 224.42032184 31.43594922 223.69335938 33.56030273 C217.50500128 51.62073056 211.22327029 69.6485069 204.91419983 87.66705322 C200.94692731 99.00138316 197.00575423 110.34479717 193.0625 121.6875 C192.35027662 123.7357641 191.6380375 125.78402272 190.92578125 127.83227539 C189.28360138 132.55476244 187.6418053 137.27738265 186 142 C172.14 142 158.28 142 144 142 C140.04584633 132.51003119 136.49103338 123.10097467 133.25 113.375 C132.86380997 112.22310684 132.86380997 112.22310684 132.46981812 111.04794312 C127.98532643 97.62040897 124.15539261 84.07167244 120.67871094 70.35107422 C120.5031517 69.65998062 120.32759247 68.96888702 120.14671326 68.2568512 C119.6758836 66.3936041 119.2123151 64.5285264 118.74926758 62.66333008 C118.26222925 60.09916643 118.26222925 60.09916643 117 59 C116.74009277 60.02730225 116.48018555 61.05460449 116.21240234 62.11303711 C110.98389542 82.6621911 105.29251073 102.94915666 98.375 123 C98.06391296 123.90370331 97.75282593 124.80740662 97.43231201 125.73849487 C96.55204025 128.28614909 95.66517067 130.83133691 94.7734375 133.375 C94.37415039 134.51739891 94.37415039 134.51739891 93.96679688 135.68287659 C92.12078914 140.87921086 92.12078914 140.87921086 91 142 C87.89748799 142.08874135 84.8173188 142.11518455 81.71484375 142.09765625 C80.78402481 142.0962413 79.85320587 142.09482635 78.8941803 142.09336853 C75.90858809 142.08775172 72.92306971 142.0751964 69.9375 142.0625 C67.91862087 142.05748716 65.89974057 142.05292388 63.88085938 142.04882812 C58.92054428 142.03777683 53.96028468 142.02050095 49 142 C47.12451169 136.64600428 45.2495958 131.29180828 43.375 125.9375 C43.07465851 125.07965912 42.77431702 124.22181824 42.46487427 123.33798218 C38.18053594 111.09970021 33.90229389 98.85929694 29.62890625 86.6171875 C29.15992358 85.27376257 28.69093961 83.93033809 28.22195435 82.58691406 C26.31555387 77.12581166 24.40919688 71.66469421 22.50378418 66.20324707 C17.91976102 53.06421669 13.33537424 39.92544215 8.69921875 26.8046875 C8.38458176 25.9134166 8.06994476 25.02214569 7.74577332 24.10386658 C6.33577743 20.11051861 4.9227809 16.11828892 3.50366211 12.12817383 C3.02576443 10.77689595 2.54797311 9.42558045 2.0703125 8.07421875 C1.66570801 6.93557373 1.26110352 5.79692871 0.84423828 4.6237793 C0 2 0 2 0 0 Z " fill="#EB2261" transform="translate(1149,1446)"/>
<path d="M0 0 C2.82154295 2.33487024 4.789647 4.31142362 6.83984375 7.38671875 C8.53951692 2.28769924 8.42761246 -3.25427442 8.83984375 -8.61328125 C20.38984375 -8.61328125 31.93984375 -8.61328125 43.83984375 -8.61328125 C43.83984375 38.24671875 43.83984375 85.10671875 43.83984375 133.38671875 C32.61984375 133.38671875 21.39984375 133.38671875 9.83984375 133.38671875 C8.84984375 125.46671875 8.84984375 125.46671875 7.83984375 117.38671875 C6.80859375 118.27359375 5.77734375 119.16046875 4.71484375 120.07421875 C4.06644531 120.62464844 3.41804688 121.17507813 2.75 121.7421875 C1.18634918 123.08839812 -0.33692115 124.48138378 -1.84765625 125.88671875 C-15.00509216 136.67720852 -31.79436989 138.63147102 -48.16015625 137.38671875 C-65.56625643 135.48138999 -82.82073094 128.06143972 -94.16015625 114.38671875 C-108.40558541 95.11524047 -112.27984932 71.88663259 -109.47265625 48.44921875 C-106.28697292 28.69355753 -97.682666 12.31853361 -81.4375 0.53125 C-57.67185962 -15.0198067 -23.39264742 -17.4704582 0 0 Z M-66.58984375 36.0390625 C-73.93212438 47.01595468 -75.99873865 60.0046954 -73.4765625 72.875 C-70.22748726 84.34787564 -64.40952521 93.33930371 -54.1171875 99.63671875 C-43.20863833 105.3758394 -30.51052106 106.34546554 -18.72265625 102.82421875 C-8.19749812 98.75411011 -0.99442456 91.25064736 4.08984375 81.32421875 C9.09305671 69.13151489 8.4913575 56.40856479 4.15234375 44.19921875 C-0.53005876 33.53564515 -8.08865188 26.6314866 -18.890625 22.2890625 C-36.36001638 16.86926575 -54.85930033 21.8805694 -66.58984375 36.0390625 Z " fill="#EB2261" transform="translate(1831.16015625,1454.61328125)"/>
<path d="M0 0 C2.70026696 2.24183654 4.7477416 4.38919052 6.69921875 7.31640625 C9.1029196 2.50900455 8.31627736 -3.32241433 8.69921875 -8.68359375 C20.24921875 -8.68359375 31.79921875 -8.68359375 43.69921875 -8.68359375 C43.69921875 38.17640625 43.69921875 85.03640625 43.69921875 133.31640625 C32.47921875 133.31640625 21.25921875 133.31640625 9.69921875 133.31640625 C9.03921875 127.70640625 8.37921875 122.09640625 7.69921875 116.31640625 C6.91546875 117.32703125 6.13171875 118.33765625 5.32421875 119.37890625 C-3.47547388 129.55612086 -16.94949466 136.03978921 -30.30078125 137.31640625 C-51.59052426 138.64133881 -71.73684641 134.39319025 -88.51953125 120.4765625 C-103.66355655 106.23535409 -109.50988035 85.76565741 -110.42578125 65.55859375 C-110.85681429 45.35392016 -106.17528723 24.83780133 -92.23852539 9.61791992 C-68.93136886 -14.4857383 -27.42367944 -20.06724251 0 0 Z M-66.73046875 35.97265625 C-73.86359677 46.61911598 -75.70470567 58.89345594 -73.83984375 71.41015625 C-71.30926227 82.96151642 -65.8239445 91.30787725 -56.30078125 98.31640625 C-45.98388798 104.8446099 -33.85698048 105.99744775 -21.98046875 103.6640625 C-10.69837255 100.30251721 -2.8054168 93.38906997 2.8828125 83.1953125 C8.18036911 72.30912474 8.93255673 60.60478555 5.79296875 48.953125 C2.08843989 38.30260453 -3.61269941 29.92120455 -13.671875 24.5 C-32.28215805 16.12122472 -53.51996595 19.99716449 -66.73046875 35.97265625 Z " fill="#3DC1D4" transform="translate(417.30078125,1454.68359375)"/>
<path d="M0 0 C13.59799823 12.91057968 21.0558599 30.87677344 21.6875 49.625 C21.75637016 52.54172473 21.79404863 55.45753027 21.8125 58.375 C21.81733398 59.10904053 21.82216797 59.84308105 21.82714844 60.59936523 C21.81469512 64.48880391 21.45784964 67.7732518 20.6875 71.625 C-15.2825 71.625 -51.2525 71.625 -88.3125 71.625 C-84.0872271 83.24450047 -81.24453385 89.31171335 -70.4375 95.0625 C-55.50589344 101.80882036 -39.59941751 100.80520886 -24.3125 95.625 C-19.55225576 93.51650764 -15.01777876 91.33027876 -11.3125 87.625 C-7.27607841 87.83588199 -5.26127853 90.33105265 -2.546875 93.09765625 C-1.65742187 93.99677734 -0.76796875 94.89589844 0.1484375 95.82226562 C1.06882812 96.76779297 1.98921875 97.71332031 2.9375 98.6875 C3.88211673 99.64716973 4.82742195 100.60616229 5.7734375 101.56445312 C8.08499172 103.91138828 10.3892634 106.26503391 12.6875 108.625 C7.71316489 119.0014843 -4.4400004 124.16987954 -14.75 127.875 C-15.4291748 128.12121094 -16.10834961 128.36742187 -16.80810547 128.62109375 C-39.48976361 136.39459457 -66.93820643 135.33937416 -88.625 125.0625 C-105.11997201 116.63204929 -116.58762975 102.05699669 -122.31640625 84.55859375 C-123.05916659 81.92125633 -123.73873759 79.30393384 -124.3125 76.625 C-124.49554687 75.77421875 -124.67859375 74.9234375 -124.8671875 74.046875 C-127.75391699 51.86463786 -125.1153233 30.20676744 -112.2109375 11.59375 C-99.64771613 -4.56530504 -82.26482026 -12.89017209 -62.375 -16.125 C-40.26145712 -18.09171423 -17.25866689 -14.98846855 0 0 Z M-81.25 28.625 C-84.48324418 32.61317619 -87.3125 36.33924965 -87.3125 41.625 C-62.8925 41.625 -38.4725 41.625 -13.3125 41.625 C-16.27901154 31.73662821 -18.972891 26.01761298 -27.3984375 20.1796875 C-29.34153105 19.14285893 -31.23318622 18.34605236 -33.3125 17.625 C-34.488125 17.2125 -35.66375 16.8 -36.875 16.375 C-52.81607039 12.89181336 -70.05156646 16.34663367 -81.25 28.625 Z " fill="#3DC1D4" transform="translate(767.3125,1458.375)"/>
<path d="M0 0 C14.04264165 13.0440538 19.68340956 32.45608966 20.7578125 51.0078125 C20.80260742 51.77101807 20.84740234 52.53422363 20.89355469 53.32055664 C21.1612449 59.53242723 20.58308586 65.05480549 20.0078125 71.3828125 C-15.9621875 71.3828125 -51.9321875 71.3828125 -88.9921875 71.3828125 C-84.75733652 83.02865271 -82.57745812 88.67191422 -71.9921875 94.3828125 C-56.75103778 101.03234458 -41.54401439 100.81701408 -25.9921875 95.3828125 C-21.85772458 93.59592224 -17.92402595 91.57412374 -13.9921875 89.3828125 C-12.66103456 88.71180275 -11.32805429 88.04438799 -9.9921875 87.3828125 C-7.44892198 89.75610507 -4.90787374 92.13175917 -2.3671875 94.5078125 C-1.65433594 95.17296875 -0.94148437 95.838125 -0.20703125 96.5234375 C3.94136227 100.40542043 8.01562693 104.34025235 12.0078125 108.3828125 C8.1937013 117.48421012 -2.50642705 122.12637039 -11.09765625 125.84375 C-32.98058157 134.79011776 -60.88998757 136.43601638 -83.06298828 127.55322266 C-100.38594179 120.19405866 -112.58187712 108.79629661 -120.67578125 91.66015625 C-129.47547293 69.7523185 -129.02813219 45.10753059 -119.9921875 23.3828125 C-111.61790294 5.77972455 -97.95499607 -5.63165083 -79.9921875 -12.6171875 C-53.45301509 -20.99626282 -21.9932606 -17.85335272 0 0 Z M-82.2421875 28.6953125 C-85.66212726 32.99807356 -85.66212726 32.99807356 -88.9921875 41.3828125 C-64.5721875 41.3828125 -40.1521875 41.3828125 -14.9921875 41.3828125 C-16.24144844 32.63798591 -19.06582698 27.23956701 -25.96484375 21.69921875 C-43.74089208 10.15677504 -68.03943565 13.4705264 -82.2421875 28.6953125 Z " fill="#3DC1D4" transform="translate(930.9921875,1458.6171875)"/>
<path d="M0 0 C1.14082031 0.87785156 1.14082031 0.87785156 2.3046875 1.7734375 C15.90381136 12.99156998 20.39929888 28.19672809 24 45 C24 54.57 24 64.14 24 74 C-11.97 74 -47.94 74 -85 74 C-81.41635464 84.75093607 -78.66425263 91.31619143 -68.58984375 96.78515625 C-53.46448044 103.88016076 -37.56483878 103.43874826 -22 98 C-17.86553708 96.21310974 -13.93183845 94.19131124 -10 92 C-8.67025557 91.32620332 -7.33829877 90.65664192 -6 90 C-5.5153125 90.49628906 -5.030625 90.99257812 -4.53125 91.50390625 C-0.45988529 95.63007779 3.70674812 99.54606805 8.1015625 103.32421875 C10.86402294 105.76268691 13.42741059 108.36309585 16 111 C12.1858888 120.10139762 1.48576045 124.74355789 -7.10546875 128.4609375 C-28.98839407 137.40730526 -56.89780007 139.05320388 -79.07080078 130.17041016 C-96.39153249 122.81219003 -108.59839061 111.41318694 -116.68359375 94.2734375 C-125.12739864 73.27667637 -125.22119996 49.0700565 -117 28 C-109.38613399 10.54635634 -96.62563125 -1.07325092 -79.3046875 -8.71484375 C-54.58839735 -18.32673436 -21.37837259 -16.64515357 0 0 Z M-80.45703125 33.6796875 C-82.62544309 36.75091322 -82.62544309 36.75091322 -85 44 C-60.58 44 -36.16 44 -11 44 C-12.24926094 35.25517341 -15.07363948 29.85675451 -21.97265625 24.31640625 C-41.53902243 11.61146328 -65.55206005 17.32316329 -80.45703125 33.6796875 Z " fill="#EB2261" transform="translate(1517,1456)"/>
<path d="M0 0 C11.55 0 23.1 0 35 0 C35.33 24.75 35.66 49.5 36 75 C38.64 72.36 41.28 69.72 44 67 C57.43645996 56.55174187 74.39021083 54.88581708 90.75488281 56.89404297 C103.22631624 58.72774489 115.25926797 64.70160902 123.30859375 74.5625 C133.62951078 89.43606172 137.19886781 106.85593934 137.11352539 124.73266602 C137.11367142 125.55328018 137.11381744 126.37389435 137.1139679 127.21937561 C137.11327828 129.89758059 137.10553104 132.57571361 137.09765625 135.25390625 C137.09578868 137.12434349 137.09436638 138.99478121 137.09336853 140.86521912 C137.08957002 145.76255672 137.0797628 150.65986416 137.06866455 155.55718994 C137.05839281 160.56481519 137.05385861 165.57244536 137.04882812 170.58007812 C137.03813788 180.38673406 137.02056297 190.19335979 137 200 C125.12 200 113.24 200 101 200 C100.97421875 194.15925781 100.9484375 188.31851562 100.921875 182.30078125 C100.89667751 178.57743146 100.87032229 174.85416057 100.83984375 171.13085938 C100.79168654 165.23461721 100.7475755 159.33855795 100.72900391 153.44213867 C100.7137433 148.68269676 100.67913331 143.92373675 100.63169098 139.16451073 C100.61697345 137.3583008 100.60896458 135.55202203 100.60811615 133.74575233 C100.59548539 120.32596943 100.36100585 106.90885263 90.24609375 96.8125 C82.18633602 90.30862594 73.03416194 89.95003915 63 91 C54.11520635 93.02090192 47.22207543 98.35310457 42.1875 105.875 C37.0091942 114.90652325 35.91942552 124.34441418 35.79467773 134.609375 C35.78477814 135.32255386 35.77487854 136.03573273 35.76467896 136.77052307 C35.73342344 139.09698315 35.70845091 141.42346355 35.68359375 143.75 C35.66299305 145.37524913 35.64199583 147.00049329 35.62062073 148.62573242 C35.56572153 152.88022804 35.516172 157.13476939 35.46777344 161.38934326 C35.4084342 166.50651494 35.34238511 171.62360396 35.27747345 176.7407074 C35.17986914 184.49375398 35.09073649 192.24685631 35 200 C23.45 200 11.9 200 0 200 C0 134 0 68 0 0 Z " fill="#3DC1D4" transform="translate(486,1388)"/>
<path d="M0 0 C14.2640426 11.90276528 20.61932952 29.66667109 23.0625 47.6171875 C23.75081295 56.10638051 23.71124641 64.66220902 22.3125 73.0546875 C-13.6575 73.0546875 -49.6275 73.0546875 -86.6875 73.0546875 C-82.56038428 84.40425574 -79.51531663 91.87702246 -68.6875 97.0546875 C-54.78243214 102.61206412 -38.87131656 102.92079992 -24.6875 98.0546875 C-18.7558622 95.47938568 -13.21927363 92.38763898 -7.6875 89.0546875 C-7.16317383 89.58425049 -6.63884766 90.11381348 -6.09863281 90.65942383 C-3.71423373 93.06465081 -1.32591633 95.46594992 1.0625 97.8671875 C1.8875 98.70056641 2.7125 99.53394531 3.5625 100.39257812 C4.76132813 101.59624023 4.76132813 101.59624023 5.984375 102.82421875 C7.08410645 103.93180542 7.08410645 103.93180542 8.20605469 105.06176758 C10.15090039 106.90179718 12.13623396 108.49990455 14.3125 110.0546875 C14.00082915 113.05621332 13.32922897 114.03858363 11.1171875 116.16796875 C-3.38755827 127.05619791 -20.32264811 134.36707994 -38.6875 135.0546875 C-39.91597656 135.10625 -41.14445312 135.1578125 -42.41015625 135.2109375 C-65.46337352 135.85907392 -87.37026514 130.23510971 -104.62890625 114.20703125 C-120.00372967 98.13202612 -124.35590913 78.07673717 -124.15576172 56.58398438 C-123.6054543 36.88816476 -117.09730423 18.84802952 -102.6875 5.0546875 C-102.09839844 4.43464844 -101.50929688 3.81460937 -100.90234375 3.17578125 C-75.33818557 -21.93889722 -27.65756982 -20.01957815 0 0 Z M-78.8203125 29.23046875 C-82.88297184 34.15155611 -84.3160532 37.73082935 -86.6875 44.0546875 C-61.9375 44.0546875 -37.1875 44.0546875 -11.6875 44.0546875 C-14.63832114 34.21861704 -17.13015596 27.64926786 -25.6875 22.0546875 C-31.46582138 19.37402294 -37.31480815 17.52673875 -43.6875 17.0546875 C-44.66203125 16.97734375 -44.66203125 16.97734375 -45.65625 16.8984375 C-58.14694347 16.35536387 -69.99798737 20.23040447 -78.8203125 29.23046875 Z " fill="#EB2261" transform="translate(2133.6875,1464.9453125)"/>
<path d="M0 0 C0.99 0.495 0.99 0.495 2 1 C-2.18350951 33.11027036 -12.70554468 62.99831161 -35 87 C-35.63164062 87.68707031 -36.26328125 88.37414063 -36.9140625 89.08203125 C-48.27148305 100.164272 -64.73010637 104.19885072 -79.78515625 107.13671875 C-100.15538352 111.13147649 -115.62165168 116.24293616 -129 133 C-129.33 133.66 -129.66 134.32 -130 135 C-130.99 134.67 -131.98 134.34 -133 134 C-135.94721668 126.64929487 -134.73708126 116.8379059 -131.9375 109.6875 C-126.93529465 99.22834337 -119.17429777 92.16517102 -110.75390625 84.453125 C-107.48698933 81.46045345 -104.2827985 78.42031896 -101.125 75.3125 C-100.34382812 74.54550781 -99.56265625 73.77851562 -98.7578125 72.98828125 C-96.79078272 71.02475841 -96.79078272 71.02475841 -96 68 C-97.11503906 67.87753906 -98.23007813 67.75507812 -99.37890625 67.62890625 C-102.53201211 67.23692839 -105.60884617 66.69540235 -108.71484375 66.02734375 C-133.85099694 60.69330951 -159.52270103 60.16991435 -182 74 C-205.49488255 90.56147004 -215.78980674 117.21783602 -226 143 C-226.66 143 -227.32 143 -228 143 C-233.84938684 117.17085047 -226.79009565 88.64360987 -213.26171875 66.41796875 C-200.77245517 46.94139334 -181.95647957 32.24186148 -159.3125 26.75 C-150.01079954 25.02258954 -140.75213979 24.83985474 -131.3125 24.875 C-130.02142334 24.87693359 -128.73034668 24.87886719 -127.40014648 24.88085938 C-120.10503943 24.91334825 -112.84555799 25.09925253 -105.5625 25.5 C-94.65517112 26.06457631 -83.7433301 26.17796613 -72.82345581 26.23217773 C-70.80805672 26.24386457 -68.79267967 26.26077154 -66.77737427 26.28344727 C-47.55665602 26.4875618 -24.45594544 26.58257732 -8.71875 13.74609375 C-4.84199266 9.80766073 -1.74830235 5.24490704 0 0 Z " fill="#3DC1D4" transform="translate(325,1359)"/>
<path d="M0 0 C6.28210453 10.38662171 2.96672605 31.53328342 0.3125 43 C-6.56548583 70.12006168 -22.0089414 93.34033128 -46 108 C-62.18821564 116.79336211 -78.05218147 118.18618434 -96.125 118.125 C-96.88408661 118.12411377 -97.64317322 118.12322754 -98.42526245 118.12231445 C-107.31837381 118.11018213 -116.18081631 117.98637589 -125.0625 117.5 C-135.10433623 116.96639417 -145.14105971 116.85643298 -155.19503784 116.82275391 C-156.99268229 116.81603262 -158.79031794 116.80590126 -160.58792114 116.79199219 C-180.62293916 116.64889668 -204.33488986 116.62749227 -220 131 C-223.53967085 134.85916608 -225.64002339 138.93099628 -227 144 C-227.33 144 -227.66 144 -228 144 C-229.97102967 113.94179761 -213.40303225 80.94460159 -194.36572266 58.55981445 C-181.07940741 43.74609965 -163.40387742 39.31452832 -144.62695312 35.52050781 C-126.72944519 31.87142948 -112.75917963 26.508088 -100 13 C-99.00363413 11.99637903 -98.00422232 10.99575977 -97 10 C-96.34 9.34 -95.68 8.68 -95 8 C-91.16406856 14.12214658 -92.22452968 23.29910273 -93.65234375 30.11328125 C-97.54557636 41.92665229 -106.73424622 50.49421549 -115.9375 58.4375 C-124.76736978 65.68470356 -124.76736978 65.68470356 -131 75 C-130.33097656 75.10957031 -129.66195312 75.21914062 -128.97265625 75.33203125 C-128.01230469 75.49058594 -127.05195313 75.64914062 -126.0625 75.8125 C-124.95132813 75.99167969 -123.84015625 76.17085937 -122.6953125 76.35546875 C-120.24257689 76.78327147 -117.79858255 77.26482858 -115.3671875 77.80078125 C-91.23889266 83.00925374 -66.42953001 81.85771801 -45 69 C-33.88881483 61.4831504 -25.6704096 51.5380058 -19 40 C-18.07960938 38.4221875 -18.07960938 38.4221875 -17.140625 36.8125 C-11.04438414 26.02341411 -6.50980146 14.56363989 -1.90454102 3.07861328 C-1 1 -1 1 0 0 Z " fill="#3DC1D4" transform="translate(283,1487)"/>
<path d="M0 0 C0.495 0.99 0.495 0.99 1 2 C-0.59093692 6.15441648 -2.69638916 10.08712062 -4.6875 14.0625 C-5.23083984 15.18978516 -5.77417969 16.31707031 -6.33398438 17.47851562 C-6.86701172 18.54908203 -7.40003906 19.61964844 -7.94921875 20.72265625 C-8.43737061 21.71015869 -8.92552246 22.69766113 -9.4284668 23.71508789 C-11 26 -11 26 -13.03833008 26.88989258 C-15.875542 27.04914368 -17.53361475 25.98602357 -20 24.625 C-26.67319165 20.98322773 -32.61513823 20.02271111 -40.15234375 21.390625 C-45.15707936 22.88916388 -47.92638769 25.46582176 -50.81640625 29.7734375 C-54.6179395 36.92483668 -54.33858809 45.06305705 -55 53 C-41.14 53 -27.28 53 -13 53 C-13 63.56 -13 74.12 -13 85 C-26.86 85 -40.72 85 -55 85 C-55 120.64 -55 156.28 -55 193 C-66.55 193 -78.1 193 -90 193 C-90 157.36 -90 121.72 -90 85 C-98.91 85 -107.82 85 -117 85 C-117 74.44 -117 63.88 -117 53 C-108.09 53 -99.18 53 -90 53 C-90.0825 49.82375 -90.165 46.6475 -90.25 43.375 C-90.37490831 27.36694892 -86.27875629 14.86806378 -75.4375 2.75 C-54.35774819 -17.06822226 -23.07686 -13.67195102 0 0 Z " fill="#EB2261" transform="translate(1727,1395)"/>
<path d="M0 0 C1.85310417 1.36525357 3.41901905 2.78598228 4.98828125 4.46484375 C3.66909677 8.73410321 2.02754737 12.56663171 -0.05078125 16.51953125 C-0.63085938 17.628125 -1.2109375 18.73671875 -1.80859375 19.87890625 C-2.411875 21.02101563 -3.01515625 22.163125 -3.63671875 23.33984375 C-4.24773437 24.50515625 -4.85875 25.67046875 -5.48828125 26.87109375 C-6.99212377 29.73779356 -8.50004893 32.60226596 -10.01171875 35.46484375 C-13.17154978 34.73841262 -15.48222782 33.71203519 -18.26171875 32.02734375 C-28.53703761 26.2275716 -38.93275349 26.32849435 -50.18359375 29.4296875 C-57.63480979 32.15699724 -63.151723 37.61388836 -67.01171875 44.46484375 C-70.74710423 54.40064387 -70.48577741 64.69561345 -70.5234375 75.13671875 C-70.5403164 76.91320002 -70.55847087 78.68966957 -70.57783508 80.46612549 C-70.62499295 85.10197285 -70.65502228 89.73777272 -70.68127441 94.3737793 C-70.71654152 99.95749728 -70.77345522 105.54103301 -70.82666779 111.12460327 C-70.90477969 119.5713257 -70.9556886 128.01781618 -71.01171875 136.46484375 C-82.89171875 136.46484375 -94.77171875 136.46484375 -107.01171875 136.46484375 C-107.01171875 89.60484375 -107.01171875 42.74484375 -107.01171875 -5.53515625 C-95.79171875 -5.53515625 -84.57171875 -5.53515625 -73.01171875 -5.53515625 C-72.35171875 -1.57515625 -71.69171875 2.38484375 -71.01171875 6.46484375 C-68.87551387 6.6990884 -68.87551387 6.6990884 -67.41796875 4.890625 C-66.78890625 4.19324219 -66.15984375 3.49585938 -65.51171875 2.77734375 C-48.91792578 -14.20724506 -18.75926962 -11.88612546 0 0 Z " fill="#3DC1D4" transform="translate(1080.01171875,1451.53515625)"/>
<path d="M0 0 C1.02456964 0.97481129 2.03429193 1.96684565 3 3 C1.68081552 7.26925946 0.03926612 11.10178796 -2.0390625 15.0546875 C-2.61914062 16.16328125 -3.19921875 17.271875 -3.796875 18.4140625 C-4.40015625 19.55617188 -5.0034375 20.69828125 -5.625 21.875 C-6.23601562 23.0403125 -6.84703125 24.205625 -7.4765625 25.40625 C-8.98040502 28.27294981 -10.48833018 31.13742221 -12 34 C-14.83086572 33.4109876 -16.15234559 32.88852762 -18.5625 31.125 C-26.40090052 25.71512156 -36.64437733 24.85171523 -45.7890625 26.50390625 C-53.71796954 28.41514417 -60.83838601 31.54689918 -65.90625 38.20703125 C-71.20739084 46.8971157 -72.12226839 56.00159537 -72.20532227 65.9765625 C-72.21522186 66.72875565 -72.22512146 67.48094879 -72.23532104 68.25593567 C-72.26660311 70.71225976 -72.29155995 73.16860312 -72.31640625 75.625 C-72.33700463 77.33992989 -72.35800181 79.05485503 -72.37937927 80.76977539 C-72.43430231 85.261008 -72.48384157 89.75228414 -72.53222656 94.24359131 C-72.5915436 99.64443166 -72.65760612 105.04519328 -72.72252655 110.44596863 C-72.82016095 118.63059725 -72.90927314 126.81527877 -73 135 C-84.55 135 -96.1 135 -108 135 C-108 88.14 -108 41.28 -108 -7 C-97.11 -7 -86.22 -7 -75 -7 C-74.01 -2.38 -73.02 2.24 -72 7 C-71.030625 5.80375 -70.06125 4.6075 -69.0625 3.375 C-52.10186516 -15.82892522 -19.72084017 -14.52910622 0 0 Z " fill="#EB2261" transform="translate(2008,1453)"/>
<path d="M0 0 C11.88 0 23.76 0 36 0 C36 66 36 132 36 200 C24.12 200 12.24 200 0 200 C0 134 0 68 0 0 Z " fill="#EB2261" transform="translate(1563,1388)"/>
<path d="M0 0 C1.07660889 0.56614014 2.15321777 1.13228027 3.26245117 1.71557617 C13.3026045 7.02853045 23.19783953 12.58464536 33.04980469 18.23730469 C36.3445173 20.12582684 39.64445142 22.00506993 42.9453125 23.8828125 C57.05791864 31.91608578 71.11455203 40.0417146 85.12792969 48.24707031 C88.28370305 50.09282241 91.4422587 51.93373534 94.6015625 53.7734375 C95.67245117 54.39718262 96.74333984 55.02092773 97.84667969 55.66357422 C99.87575757 56.84526544 101.90503814 58.02660872 103.93457031 59.20751953 C105.77140797 60.27799657 107.6055166 61.35317362 109.43652344 62.43359375 C111.28992306 63.51345317 113.15899495 64.56670544 115.04003906 65.59765625 C115.9575293 66.11199219 116.87501953 66.62632812 117.8203125 67.15625 C118.64805176 67.60806641 119.47579102 68.05988281 120.32861328 68.52539062 C120.9214209 69.01201172 121.51422852 69.49863281 122.125 70 C122.125 71.32 122.125 72.64 122.125 74 C115.11436774 75.40720503 108.10343205 76.81289059 101.09228516 78.2175293 C98.70810068 78.69537081 96.32398542 79.17355779 93.93994141 79.65209961 C90.50962245 80.34059422 87.07905505 81.02783872 83.6484375 81.71484375 C82.58571625 81.92842026 81.522995 82.14199677 80.42807007 82.36204529 C57.83125855 86.88174874 57.83125855 86.88174874 49.7734375 81.86328125 C44.90353206 78.43710884 40.16099512 74.84736168 35.42578125 71.23828125 C31.28964054 68.09984031 27.06838181 65.09815804 22.8125 62.125 C14.28874523 56.15601974 5.9177488 49.99195561 -2.44140625 43.79541016 C-4.90068859 41.98104796 -7.3704887 40.18196866 -9.84375 38.38671875 C-19.17945578 31.59669469 -28.22072753 24.64166372 -36.875 17 C-37.81214844 16.17371094 -38.74929688 15.34742188 -39.71484375 14.49609375 C-41.41189852 12.98344728 -43.09921784 11.45975755 -44.7734375 9.921875 C-46.02373129 8.77848365 -47.29369799 7.65518989 -48.6015625 6.578125 C-51.29677718 4.25933695 -51.87429718 3.00400607 -52.5 -0.5625 C-51.875 -4 -51.875 -4 -49.8125 -6.25 C-48.843125 -6.8275 -47.87375 -7.405 -46.875 -8 C-45.92625 -8.5775 -44.9775 -9.155 -44 -9.75 C-28.63262633 -15.76332013 -13.28598865 -7.05350738 0 0 Z " fill="#EB2261" transform="translate(1218.875,759)"/>
<path d="M0 0 C1.30166333 0.96888477 2.58125933 1.96796567 3.83984375 2.9921875 C4.54826416 3.5291626 5.25668457 4.0661377 5.98657227 4.61938477 C7.49338613 5.76294445 8.99157641 6.91794582 10.48144531 8.08349609 C13.55308077 10.46986026 16.68913502 12.76264424 19.82861328 15.05859375 C22.22956597 16.8154603 24.62124077 18.5843839 27.01171875 20.35546875 C31.63564271 23.77245419 36.29618276 27.1367133 40.96484375 30.4921875 C47.24966433 35.01399348 53.47516388 39.6055933 59.65551758 44.26904297 C64.12994911 47.64247703 68.63387457 50.97294578 73.15380859 54.28515625 C98.68043189 73.00235199 98.68043189 73.00235199 102.33984375 81.4921875 C102.77734375 84.8671875 102.77734375 84.8671875 101.71484375 87.6171875 C98.52138554 91.32571962 95.50827634 92.98203926 90.65234375 93.44140625 C61.74225057 94.64811444 35.7562507 75.81145958 11.81689453 61.66113281 C6.85567161 58.73301506 1.87916175 55.8311953 -3.09765625 52.9296875 C-4.08443359 52.35428223 -5.07121094 51.77887695 -6.08789062 51.18603516 C-9.13211369 49.41188247 -12.17717265 47.63917542 -15.22265625 45.8671875 C-16.26147949 45.26261719 -17.30030273 44.65804687 -18.37060547 44.03515625 C-32.05931252 36.0778231 -45.81426102 28.25572418 -59.6809082 20.61352539 C-60.7555835 20.02047607 -61.83025879 19.42742676 -62.9375 18.81640625 C-64.36243774 18.03269653 -64.36243774 18.03269653 -65.81616211 17.2331543 C-67.66236947 16.18521576 -69.45630601 15.04475433 -71.22265625 13.8671875 C-71.22265625 12.5471875 -71.22265625 11.2271875 -71.22265625 9.8671875 C-61.08494476 7.20166853 -50.85637996 4.97440442 -40.60498047 2.7956543 C-38.68232643 2.38477372 -36.76076454 1.96874919 -34.84033203 1.54760742 C-7.43600245 -4.45891699 -7.43600245 -4.45891699 0 0 Z " fill="#3DC1D4" transform="translate(944.22265625,497.1328125)"/>
<path d="M0 0 C2.54862969 2.3159124 5.16016537 4.49809777 7.83984375 6.66015625 C14.27946368 11.8753414 20.50689778 17.32347377 26.75585938 22.76367188 C29.73089708 25.34653159 32.72193151 27.91055156 35.71484375 30.47265625 C36.28678467 30.96282227 36.85872559 31.45298828 37.44799805 31.95800781 C40.36671762 34.45823904 43.28986349 36.95309208 46.21875 39.44140625 C73.09225164 62.30465071 73.09225164 62.30465071 75.83984375 69.53515625 C75.65234375 72.41015625 75.65234375 72.41015625 73.58984375 75.16015625 C66.19565947 80.82378676 56.55106721 80.36306386 47.65234375 79.41015625 C34.12246282 76.25038282 20.5784668 65.84732385 9.61767578 57.59619141 C6.3299112 55.1724598 2.9866967 52.84700999 -0.3828125 50.5390625 C-1.07251633 50.06586075 -1.76222015 49.592659 -2.4728241 49.1051178 C-11.67007718 42.80563723 -20.91544368 36.57716524 -30.16015625 30.34765625 C-31.09477692 29.71751617 -32.02939758 29.0873761 -32.99234009 28.43814087 C-48.40985771 18.04386305 -63.85539293 7.69270645 -79.34765625 -2.58984375 C-78.66946411 -4.53178406 -78.66946411 -4.53178406 -77.34765625 -6.58984375 C-75.07296753 -7.26741028 -75.07296753 -7.26741028 -72.19873047 -7.51879883 C-70.58597733 -7.67334282 -70.58597733 -7.67334282 -68.94064331 -7.83100891 C-67.18918503 -7.96880013 -67.18918503 -7.96880013 -65.40234375 -8.109375 C-64.20336456 -8.21706711 -63.00438538 -8.32475922 -61.76907349 -8.43571472 C-59.22605335 -8.66032362 -56.68220784 -8.87574542 -54.13769531 -9.08276367 C-50.25764529 -9.39948764 -46.38102212 -9.74505511 -42.50390625 -10.09570312 C-40.03270072 -10.31031219 -37.56134991 -10.52325621 -35.08984375 -10.734375 C-33.93435028 -10.83635696 -32.77885681 -10.93833893 -31.58834839 -11.04341125 C-17.54873991 -12.16326902 -10.30893208 -9.53382441 0 0 Z " fill="#3DC1D4" transform="translate(1031.34765625,497.58984375)"/>
<path d="M0 0 C11.05460277 5.74486963 21.14178943 13.1089848 31.15625 20.46875 C36.60464577 24.46424023 42.1403667 28.33074776 47.6875 32.1875 C48.58879639 32.81615967 49.49009277 33.44481934 50.41870117 34.0925293 C56.16076961 38.08097942 61.95570897 41.98539949 67.77838135 45.85475159 C76.8640906 51.89619328 85.89650963 58.01694754 94.9375 64.125 C96.79619654 65.38024893 98.65492033 66.63545751 100.51367188 67.890625 C105.0094279 70.92661963 109.50485074 73.96310706 114 77 C113.67 78.32 113.34 79.64 113 81 C112.12375977 81.08040527 111.24751953 81.16081055 110.34472656 81.24365234 C107.03432413 81.54955692 103.72434149 81.85944638 100.41455078 82.171875 C98.993146 82.30526196 97.57159922 82.43714599 96.14990234 82.56738281 C88.21307531 83.29553208 80.37493984 84.20901517 72.52001953 85.59423828 C60.32774855 87.55738054 49.27064466 85.81563001 39 79 C35.08392249 76.12005133 31.86564265 72.90855189 28.75 69.1875 C25.20511536 65.01751293 21.16496781 61.75001539 16.890625 58.3515625 C13.9934133 55.99464163 11.24430159 53.53259832 8.5 51 C4.94329756 47.72581577 1.32838189 44.59357567 -2.4375 41.5625 C-7.5581696 37.42938811 -12.38740118 33.0440817 -17.2109375 28.57421875 C-19.55266573 26.41287575 -21.91387552 24.28513878 -24.3125 22.1875 C-25.24449219 21.36765625 -25.24449219 21.36765625 -26.1953125 20.53125 C-27.3904933 19.5171572 -28.6151308 18.53672157 -29.8671875 17.59375 C-34.9680207 13.65319216 -37.74649628 9.03357447 -40 3 C-40 2.01 -40 1.02 -40 0 C-38.35546875 -1.3515625 -38.35546875 -1.3515625 -36.1875 -2.625 C-35.12595703 -3.26308594 -35.12595703 -3.26308594 -34.04296875 -3.9140625 C-24.91582089 -8.7655866 -8.88280023 -3.85423196 0 0 Z " fill="#EB2261" transform="translate(1148,767)"/>
<path d="M0 0 C0.94875 0.7115625 1.8975 1.423125 2.875 2.15625 C4.001139 3.01934923 5.12603309 3.88407406 6.25 4.75 C7.24966797 5.51763672 7.24966797 5.51763672 8.26953125 6.30078125 C16.80128862 12.86485404 25.25249546 19.52509588 33.63354492 26.28027344 C38.29569147 30.02388347 43.04379074 33.64363352 47.8125 37.25 C55.55749922 43.12712386 62.98786508 49.28736618 70.25 55.75 C71.03761719 56.42933594 71.82523438 57.10867188 72.63671875 57.80859375 C75.78429145 60.67524718 77.10456606 62.29838936 78.4375 66.4375 C78.25 69.75 78.25 69.75 76.9375 72 C69.50832357 76.83760326 60.92265883 77.71961403 52.25 76.75 C39.32254654 73.90443036 28.3623461 67.36372026 17.125 60.625 C15.95260114 59.92535027 14.77998773 59.22605995 13.60717773 58.52709961 C11.11439362 57.04111666 8.62262121 55.55345521 6.13134766 54.06494141 C2.21180874 51.72495328 -1.71560669 49.39840398 -5.64453125 47.07421875 C-21.97056737 37.41298949 -38.23170198 27.65219069 -54.42822266 17.77539062 C-57.8194417 15.70765924 -61.21222071 13.64252487 -64.60546875 11.578125 C-69.98785267 8.30351655 -75.36932718 5.0274192 -80.75 1.75 C-80.42 0.1 -80.09 -1.55 -79.75 -3.25 C-70.85753566 -3.5581896 -61.96477774 -3.85454534 -53.07142448 -4.1359272 C-48.94160292 -4.26696239 -44.81199605 -4.40202358 -40.68261719 -4.54638672 C-36.69528667 -4.68563393 -32.70773986 -4.81417332 -28.71982193 -4.93539047 C-27.20072088 -4.98342974 -25.68173537 -5.03528367 -24.16289902 -5.09106827 C-22.03049515 -5.16872698 -19.89807834 -5.23263743 -17.76513672 -5.29345703 C-16.5526828 -5.33342804 -15.34022888 -5.37339905 -14.09103394 -5.4145813 C-8.46128701 -5.13725665 -4.45192696 -3.34621961 0 0 Z " fill="#3DC1D4" transform="translate(1106.75,486.25)"/>
<path d="M0 0 C1.39025391 -0.05607422 1.39025391 -0.05607422 2.80859375 -0.11328125 C15.09537116 -0.26538716 25.61681981 5.57851058 36.25 11.1875 C37.30977051 11.74300537 38.36954102 12.29851074 39.46142578 12.87084961 C66.79035381 27.3714644 92.70845873 44.35103504 118.53125 61.34033203 C120.52738157 62.65312879 122.52469249 63.96413489 124.5234375 65.27294922 C127.08126405 66.94808742 129.63507 68.62915453 132.1875 70.3125 C132.93717041 70.80234375 133.68684082 71.2921875 134.45922852 71.796875 C139.51011934 75.14523869 139.51011934 75.14523869 140.625 77.375 C140.295 78.035 139.965 78.695 139.625 79.375 C137.23266602 79.76269531 137.23266602 79.76269531 133.81640625 79.953125 C132.84556847 80.00741669 132.84556847 80.00741669 131.8551178 80.06280518 C121.35394986 80.60078439 110.83611106 80.8233586 100.32446289 81.04248047 C97.80021591 81.09785041 95.27611141 81.16011255 92.75219727 81.22900391 C89.07325543 81.3292372 85.394371 81.40911198 81.71484375 81.484375 C80.58980942 81.51859558 79.46477509 81.55281616 78.3056488 81.58807373 C69.18077513 81.73566111 64.28836776 79.19068203 57.25 73.5 C56.34761597 72.78142822 56.34761597 72.78142822 55.42700195 72.04833984 C50.18277009 67.86023333 44.99500212 63.60204091 39.79931641 59.35400391 C34.97935774 55.43035195 30.07754297 51.6294475 25.125 47.875 C17.41368894 42.02723369 9.88747242 35.97734724 2.41162109 29.83251953 C0.76126061 28.48616095 -0.90203465 27.15893509 -2.57421875 25.83984375 C-16.69012396 14.61259581 -16.69012396 14.61259581 -18.0625 8.125 C-17.21997518 4.75490073 -16.10624979 3.48196412 -13.375 1.375 C-8.95130557 -0.09956481 -4.6358815 0.06808371 0 0 Z " fill="#EB2261" transform="translate(1046.375,775.625)"/>
<path d="M0 0 C3.94139078 1.66751148 6.7892812 4.22710649 10 7 C9.42378906 7.67095703 9.42378906 7.67095703 8.8359375 8.35546875 C7.37701732 10.18497026 6.10219972 11.93446037 5 14 C5.38993968 16.56437999 5.38993968 16.56437999 7 19 C10.54035623 26.63705416 11.21784089 33.13061169 8.5 41.1875 C6.24566606 46.42310891 2.81273983 49.12637379 -2 52 C-1.45730469 52.37511719 -0.91460938 52.75023437 -0.35546875 53.13671875 C8.1715836 59.23624989 8.1715836 59.23624989 9.49609375 65.25390625 C10.360755 71.09259816 10.26539799 75.95531394 7 81 C0.51106271 88.58181094 -6.00985504 91.51414635 -15.8046875 92.30859375 C-24.92909992 92.70838594 -33.66131702 92.08138445 -41.15625 86.3515625 C-45.13035187 82.62177017 -47.84914965 79.30194646 -48.10546875 73.69140625 C-48.12286873 71.46072832 -48.06655978 69.22975259 -48 67 C-44.04 67 -40.08 67 -36 67 C-35.79375 68.0725 -35.5875 69.145 -35.375 70.25 C-33.72344688 74.75423579 -32.16521141 75.78988782 -28 78 C-22.05523844 79.98158719 -15.32041841 79.8141819 -9.4375 77.75 C-6.11538809 75.38307048 -6.11538809 75.38307048 -4 72 C-3.83974601 68.45421315 -3.83974601 68.45421315 -5 65 C-9.16709453 60.83290547 -12.80018033 59.96385934 -18.54711914 59.35449219 C-28.48618385 58.28882311 -37.04046357 56.89571773 -44 49 C-49.03308617 41.08432812 -50.26025547 32.760523 -48.5390625 23.52734375 C-46.62781541 16.97289049 -43.40635707 12.07717825 -37.52734375 8.4921875 C-28.73600457 3.96056936 -19.99160156 2.35266374 -10.1484375 4.671875 C-8.0713991 5.37081491 -6.02996227 6.17425264 -4 7 C-3.71125 6.401875 -3.4225 5.80375 -3.125 5.1875 C-2 3 -2 3 0 0 Z M-32.9375 20.0625 C-36.17983996 24.68037812 -37.51818145 29.60826687 -36.65625 35.25 C-35.02518143 40.37621552 -32.38278781 42.98683338 -28 46 C-22.72692318 47.75769227 -16.84310587 48.11776267 -11.60546875 46.05859375 C-6.49346011 43.03311925 -3.93818813 39.94859125 -2.125 34.25 C-1.92952926 29.16776088 -3.04305202 24.38287196 -6.328125 20.3828125 C-14.57868011 13.04416085 -24.36366585 14.04257389 -32.9375 20.0625 Z " fill="#808184" transform="translate(1427,1687)"/>
<path d="M0 0 C3.15133488 1.83827868 6.11964908 3.75972706 9 6 C8.56671758 8.51303805 8.3219867 9.71516561 6.375 11.4375 C4.7262877 12.94337336 4.7262877 12.94337336 5.125 15.3125 C5.92769084 18.08208588 5.92769084 18.08208588 7.53125 20.69921875 C9.24171827 24.54322324 9.40056281 27.30769938 9.375 31.5 C9.38660156 33.40265625 9.38660156 33.40265625 9.3984375 35.34375 C8.68675351 41.87449717 5.79349856 45.68585129 1 50 C0.01 50.66 -0.98 51.32 -2 52 C-1.45730469 52.36351562 -0.91460938 52.72703125 -0.35546875 53.1015625 C4.10703038 56.2373727 7.39684239 58.58934307 9 64 C9.62303906 70.46180515 9.99876884 76.58231319 6 82 C0.14316903 88.60770674 -7.19086336 91.52538228 -15.87890625 92.3828125 C-25.49315734 92.80271893 -33.66797459 91.28997313 -41.9375 86.1875 C-47.66019387 80.1179762 -48.55476358 75.12556474 -49 67 C-44.71 67 -40.42 67 -36 67 C-35.79375 68.0725 -35.5875 69.145 -35.375 70.25 C-33.72344688 74.75423579 -32.16521141 75.78988782 -28 78 C-22.35491079 79.8816964 -15.61122764 79.93469507 -10 77.8125 C-6.67128645 75.80140223 -5.35363536 74.63789502 -4 71 C-3.83551119 67.90351124 -3.83551119 67.90351124 -5 65 C-9.33564013 60.77845566 -12.88156044 59.96588322 -18.80151367 59.45629883 C-28.42680059 58.57806025 -36.59312183 57.01759293 -43.4375 49.625 C-49.36898979 41.74435209 -49.94530178 34.75725284 -49 25 C-47.3353568 17.27354288 -43.57348236 12.3024355 -37 8 C-28.17493216 2.83672246 -17.93724556 2.5991314 -8.125 5 C-7.09375 5.33 -6.0625 5.66 -5 6 C-3.35 4.02 -1.7 2.04 0 0 Z M-32 19 C-36.29793235 24.1365533 -37.44996938 28.36295161 -37 35 C-35.10672504 40.2590971 -32.40216785 42.79008594 -28 46 C-22.87472373 47.70842542 -17.07067769 47.93186928 -11.86328125 46.3515625 C-7.29901601 44.03477711 -4.57378477 40.77756092 -3 36 C-2.13086871 30.33089361 -2.7399408 25.83388088 -6 21 C-9.6273335 17.3726665 -13.02040965 16.08645608 -18 15 C-23.2919573 15 -27.36592758 16.47863281 -32 19 Z " fill="#808184" transform="translate(753,1687)"/>
<path d="M0 0 C3.63 0 7.26 0 11 0 C11 1.65 11 3.3 11 5 C11.41507813 4.6390625 11.83015625 4.278125 12.2578125 3.90625 C18.70312428 -0.94795971 25.16835973 -1.01383467 33 0 C37.44354952 1.45411836 40.5578924 3.97770514 43 8 C43.67095703 7.38511719 43.67095703 7.38511719 44.35546875 6.7578125 C45.26232422 5.94957031 45.26232422 5.94957031 46.1875 5.125 C46.77917969 4.59132813 47.37085938 4.05765625 47.98046875 3.5078125 C54.25810624 -1.17916636 61.49802408 -0.67891185 69 0 C74.66434622 1.54802008 79.05540681 4.86388486 82 10 C86.10060271 18.92947989 85.34131323 28.54794988 85.1875 38.125 C85.17242322 39.76561269 85.15874012 41.40623881 85.14648438 43.046875 C85.1137217 47.03158667 85.0621063 51.01564209 85 55 C80.71 55 76.42 55 72 55 C71.98541748 53.93563721 71.97083496 52.87127441 71.95581055 51.7746582 C71.8977022 47.81403531 71.82047055 43.85397352 71.73754883 39.89379883 C71.70435831 38.18197762 71.67630811 36.47004852 71.65356445 34.75805664 C71.61990968 32.29266521 71.56759026 29.82825719 71.51171875 27.36328125 C71.50532883 26.60163162 71.4989389 25.83998199 71.49235535 25.05525208 C71.36860983 20.55177766 70.79151886 17.58038031 68 14 C64.94712456 12.1343539 63.09561838 11.99829253 59.5 12.0625 C55.21898933 13.20919929 53.67251421 14.48755275 51 18 C49.33944827 22.82362904 48.71689238 27.16067942 48.5859375 32.24609375 C48.56657135 32.90207047 48.5472052 33.55804718 48.5272522 34.23390198 C48.46811091 36.30164128 48.42133771 38.36943829 48.375 40.4375 C48.33675967 41.85093394 48.29770455 43.26434609 48.2578125 44.67773438 C48.16246548 48.11828852 48.07819713 51.55900839 48 55 C44.04 55 40.08 55 36 55 C35.98541748 54.00145996 35.97083496 53.00291992 35.95581055 51.97412109 C35.89759932 48.25013394 35.82036923 44.52673708 35.73754883 40.80322266 C35.70440637 39.1952476 35.67634146 37.58715919 35.65356445 35.97900391 C35.61982033 33.65999295 35.56749806 31.34201069 35.51171875 29.0234375 C35.50532883 28.31069672 35.4989389 27.59795593 35.49235535 26.86361694 C35.3568044 22.20522985 34.44460406 18.96540316 32 15 C29.28916453 12.8020253 27.51042828 12.07602123 24.0625 11.5625 C20.13707473 12.12327504 18.05202395 13.50288949 15 16 C12.42545935 19.67916886 12.65302753 23.72024042 12.5859375 28.046875 C12.56657135 28.81807678 12.5472052 29.58927856 12.5272522 30.3838501 C12.46762923 32.83912205 12.42114086 35.29444133 12.375 37.75 C12.33680425 39.41798882 12.29775159 41.08595826 12.2578125 42.75390625 C12.16194209 46.83577943 12.07784765 50.91774493 12 55 C8.04 55 4.08 55 0 55 C0 36.85 0 18.7 0 0 Z " fill="#808184" transform="translate(1530,1692)"/>
<path d="M0 0 C4.43347187 2.96622268 6.67825401 4.71301602 8 10 C5.36 11.98 2.72 13.96 0 16 C-4 14 -4 14 -6.6875 12 C-13.40771152 7.9425138 -20.38629598 7.23968873 -28 9 C-32.03174296 10.61269719 -33.57942137 11.36913205 -36 15 C-36.66676878 18.45749949 -36.66676878 18.45749949 -36 22 C-30.15238836 27.27080641 -22.62557483 27.68186769 -15.1171875 28.97851562 C-6.13576085 30.65829126 3.28732526 33.38310035 9 41 C12.34899756 47.48786194 12.79727985 53.95303834 11 61 C7.88444731 68.16244498 3.17025595 72.141506 -4 75 C-13.78511411 78.54127939 -27.25155579 78.75908642 -37 75 C-43.42418039 71.92543049 -49.18904673 68.15940048 -53 62 C-53.65234375 59.7890625 -53.65234375 59.7890625 -54 58 C-52.76055724 57.13058506 -51.50792941 56.27994543 -50.25 55.4375 C-49.55390625 54.96183594 -48.8578125 54.48617188 -48.140625 53.99609375 C-46 53 -46 53 -43.87890625 53.203125 C-40.98385974 54.43096178 -39.21120759 56.78879241 -37 59 C-29.61784164 64.03782429 -22.79384753 64.81444896 -14 64 C-9.14229945 62.58812157 -5.84070036 61.26105055 -3 57 C-2.6653241 53.98791687 -2.44821692 51.89979621 -3 49 C-8.22004879 42.76961918 -17.36787256 41.88443261 -24.9375 40.5625 C-42.16629207 37.4821463 -42.16629207 37.4821463 -47.87890625 29.84375 C-51.54019113 23.82240344 -51.58168866 17.68289646 -50 11 C-47.6689473 4.99989126 -44.10387986 1.93401753 -38.4765625 -0.9921875 C-26.66686875 -5.79802502 -11.35474522 -6.34930865 0 0 Z " fill="#808184" transform="translate(461,1672)"/>
<path d="M0 0 C2.87618941 2.14908873 5.48755656 4.43716371 8 7 C7.61479436 9.53910197 7.29902057 10.72751123 5.37109375 12.484375 C4.41396484 13.11085938 4.41396484 13.11085938 3.4375 13.75 C2.79683594 14.17796875 2.15617187 14.6059375 1.49609375 15.046875 C1.00238281 15.36140625 0.50867187 15.6759375 0 16 C-2.48090136 14.8549686 -4.52669241 13.61695097 -6.75 12 C-13.59121382 7.79002227 -20.2644079 7.22935311 -28 9 C-31.29373478 10.36642258 -34.34522842 11.69045683 -36 15 C-36.41702122 17.9157691 -36.41702122 17.9157691 -36 21 C-33.35562405 24.22734064 -31.21071446 25.57987158 -27.1875 26.5625 C-26.22457031 26.80226563 -25.26164062 27.04203125 -24.26953125 27.2890625 C-20.64961255 28.07618939 -17.01636236 28.75680312 -13.375 29.4375 C-4.40012795 31.18869455 4.26464637 33.66378053 9.75 41.5 C12.51916681 47.03833361 12.89133103 53.13288663 11.50390625 59.15234375 C9.53487342 64.94819746 6.83695207 69.39744692 1.44140625 72.4453125 C-10.35041578 78.04522798 -23.96147058 79.03198705 -36.5 75.0390625 C-43.77426245 72.01569717 -49.15798737 67.91562274 -53 61 C-52.64919163 57.49853535 -52.04911279 57.04038163 -49.1875 54.6875 C-46 53 -46 53 -44.03515625 53.18359375 C-41.55019963 54.18043815 -40.15954757 55.50490589 -38.25 57.375 C-31.61446183 63.31527039 -25.76404054 64.53531465 -16.91015625 64.2890625 C-11.92560371 63.79395258 -7.76288943 62.70602203 -4.0625 59.125 C-2.31390739 55.62781478 -1.70874902 53.22325411 -2.625 49.375 C-4.72659479 45.74497264 -7.64367326 44.37990757 -11.62792969 43.26391602 C-13.01093262 43.01146118 -13.01093262 43.01146118 -14.421875 42.75390625 C-15.44796875 42.55603516 -16.4740625 42.35816406 -17.53125 42.15429688 C-19.66127477 41.76267217 -21.79148084 41.37203214 -23.921875 40.98242188 C-33.43271825 39.14564027 -42.78153437 36.67310895 -48.8125 28.5625 C-50.97423662 22.07729014 -50.95551888 15.09138461 -48.9375 8.5625 C-38.10445117 -5.76508071 -15.45521077 -8.92339124 0 0 Z " fill="#808184" transform="translate(1135,1672)"/>
<path d="M0 0 C0.33 -1.32 0.66 -2.64 1 -4 C4.96 -4 8.92 -4 13 -4 C13 13.82 13 31.64 13 50 C9.04 50 5.08 50 1 50 C1 48.02 1 46.04 1 44 C0.43152344 44.40992188 -0.13695312 44.81984375 -0.72265625 45.2421875 C-8.48592134 50.65962457 -14.4246143 52.64104686 -23.93359375 51.59375 C-30.81038727 50.26219253 -36.15280563 47.55474836 -40.5 42 C-46.08026494 33.60602401 -47.07116422 24.3968259 -45.375 14.5625 C-43.68205455 7.75544851 -40.01487499 2.02883707 -34.1875 -1.9375 C-22.98903518 -8.13512366 -10.49130909 -7.10701584 0 0 Z M-29 10 C-33.19615534 15.16449888 -33.6252182 19.60388704 -33.38671875 26.19140625 C-32.67542577 31.35726136 -30.18370781 33.93177587 -26.4375 37.3125 C-21.84353495 40.49293734 -17.40049459 40.50021734 -12 40 C-6.72677847 38.17465409 -4.20308914 35.39280797 -1 31 C0.79973286 25.60080143 0.70112627 20.06442735 -1.125 14.6875 C-3.76013231 10.91047703 -6.8324947 8.08375265 -11 6 C-18.10855901 5.28089204 -23.32865346 5.48607112 -29 10 Z " fill="#808184" transform="translate(1200,1697)"/>
<path d="M0 0 C5.76734078 0.39100615 10.80437529 1.64245452 15.25 5.4375 C15.724375 6.035625 16.19875 6.63375 16.6875 7.25 C17.0175 5.6 17.3475 3.95 17.6875 2.25 C21.6475 2.25 25.6075 2.25 29.6875 2.25 C29.6875 20.07 29.6875 37.89 29.6875 56.25 C26.0575 56.25 22.4275 56.25 18.6875 56.25 C18.0275 54.6 17.3675 52.95 16.6875 51.25 C16.048125 51.848125 15.40875 52.44625 14.75 53.0625 C8.07264871 57.83203663 1.79365931 58.84829122 -6.3125 57.88671875 C-14.08424344 56.23724716 -19.88334126 52.82662965 -24.3125 46.25 C-28.81574706 38.36931764 -29.49094581 29.64157049 -27.8515625 20.75 C-25.92539546 14.22369284 -22.68351738 8.45897562 -16.91015625 4.67578125 C-11.24033349 1.70019006 -6.35946221 0.47995941 0 0 Z M-13.6875 18.875 C-16.48608717 24.68745028 -17.01589959 29.86625695 -15.1875 36.0625 C-12.74435101 40.21585329 -10.24459437 43.12294495 -6.0625 45.5625 C-0.6825209 46.90749478 4.46497506 47.22372255 9.5 44.625 C13.75587496 41.45395591 16.01525456 38.26673632 17.6875 33.25 C18.22527752 26.90422521 17.33500139 22.53946343 13.6875 17.25 C8.61365877 12.538576 5.28830101 11.89287342 -1.484375 11.97265625 C-6.95097349 12.50874533 -9.99584656 14.79475146 -13.6875 18.875 Z " fill="#808184" transform="translate(508.3125,1690.75)"/>
<path d="M0 0 C5.66432447 4.42299379 8.24567265 9.88503436 9.9609375 16.74609375 C9.9609375 21.03609375 9.9609375 25.32609375 9.9609375 29.74609375 C-4.2290625 29.74609375 -18.4190625 29.74609375 -33.0390625 29.74609375 C-30.01206844 35.87614136 -30.01206844 35.87614136 -25.0390625 39.74609375 C-15.80883991 42.61983315 -8.30685074 39.87998787 -0.0390625 35.74609375 C2.2709375 38.05609375 4.5809375 40.36609375 6.9609375 42.74609375 C5.81950761 46.17038341 5.23879029 46.50678891 2.2734375 48.30859375 C1.60957031 48.72238281 0.94570312 49.13617187 0.26171875 49.5625 C-5.45149555 52.50155591 -10.53952305 53.13426166 -16.8515625 53.12109375 C-17.65037842 53.11948242 -18.44919434 53.11787109 -19.2722168 53.11621094 C-25.25512496 52.99163063 -29.98861254 52.1364421 -35.0390625 48.74609375 C-35.9671875 48.12734375 -36.8953125 47.50859375 -37.8515625 46.87109375 C-43.11804839 41.75507889 -45.76309784 36.23686754 -46.33984375 28.94140625 C-46.49754089 18.05367787 -45.61054858 10.69339589 -38.00390625 2.5078125 C-28.01608186 -6.44747338 -11.24540629 -6.91527858 0 0 Z M-30.43359375 12.27734375 C-31.92870282 14.43283668 -33.0390625 16.07377907 -33.0390625 18.74609375 C-22.8090625 18.74609375 -12.5790625 18.74609375 -2.0390625 18.74609375 C-4.24276928 12.13497342 -4.7706149 11.43400707 -10.0390625 7.74609375 C-11.94615093 6.83181036 -11.94615093 6.83181036 -14.0390625 6.74609375 C-15.1115625 6.64296875 -16.1840625 6.53984375 -17.2890625 6.43359375 C-22.44607936 6.86334515 -26.87086605 8.36532902 -30.43359375 12.27734375 Z " fill="#808184" transform="translate(1725.0390625,1695.25390625)"/>
<path d="M0 0 C5.31004328 4.56507799 7.76433251 8.29299754 10 15 C10 19.95 10 24.9 10 30 C-4.19 30 -18.38 30 -33 30 C-28.43041998 38.14454623 -28.43041998 38.14454623 -21 41 C-14.67054832 41.93114838 -9.92159366 40.50701425 -4.1640625 37.875 C-2 37 -2 37 1 37 C2.60546875 38.3125 2.60546875 38.3125 4.1875 40 C4.98220703 40.8353125 4.98220703 40.8353125 5.79296875 41.6875 C6.39044922 42.3371875 6.39044922 42.3371875 7 43 C5.57247607 46.59950927 4.02291657 47.89823164 0.625 49.6875 C-0.14585937 50.10386719 -0.91671875 50.52023437 -1.7109375 50.94921875 C-9.59022348 54.56616061 -20.85332322 54.36142006 -29.16015625 52.1640625 C-36.43219297 48.81465455 -42.00707099 43.23887414 -44.9375 35.75 C-47.61413118 26.01375409 -46.33371339 17.01352194 -42 8 C-38.48039109 2.21778536 -32.8969888 -0.83006221 -26.75 -3.3125 C-17.42873709 -5.0213982 -8.38259839 -4.81389647 0 0 Z M-29.875 13 C-32.11088069 15.84879906 -32.11088069 15.84879906 -33 19 C-22.77 19 -12.54 19 -2 19 C-3.08844853 13.55775735 -3.90017027 12.44758409 -8 9 C-15.49797004 4.85638498 -24.29542456 6.55462838 -29.875 13 Z " fill="#808184" transform="translate(957,1695)"/>
<path d="M0 0 C3.63 0 7.26 0 11 0 C11.33 1.98 11.66 3.96 12 6 C12.55945313 5.566875 13.11890625 5.13375 13.6953125 4.6875 C21.00144135 -0.38685315 27.23514303 -1.2028145 36 0 C42.26890861 1.70156091 46.5317282 5.6105684 50 11 C54.09251269 19.73273854 53.34299183 29.23485796 53.1875 38.625 C53.17242196 40.21743522 53.15873909 41.8098843 53.14648438 43.40234375 C53.11373449 47.2685767 53.06212661 51.13413209 53 55 C48.71 55 44.42 55 40 55 C39.9906543 53.97116699 39.98130859 52.94233398 39.97167969 51.88232422 C39.93165231 48.04644288 39.86585946 44.21135288 39.79248047 40.37597656 C39.76434438 38.71950486 39.7430933 37.06290073 39.72900391 35.40625 C39.70747109 33.01754324 39.66077245 30.63041614 39.609375 28.2421875 C39.60814636 27.50757294 39.60691772 26.77295837 39.60565186 26.01608276 C39.46162656 20.90127224 38.22964331 17.94160223 35 14 C31.08544457 11.6724265 27.48513712 11.5360203 23 12 C18.64157073 13.49764956 16.54216304 14.92125016 14.43334961 19.1171875 C12.83166297 22.98728372 12.57260023 26.48450867 12.48828125 30.68359375 C12.47033005 31.38396255 12.45237885 32.08433136 12.43388367 32.80592346 C12.38022445 35.01638989 12.34603068 37.22664612 12.3125 39.4375 C12.27928743 40.94729461 12.24479419 42.45706163 12.20898438 43.96679688 C12.12452605 47.64432933 12.0575045 51.32193591 12 55 C8.04 55 4.08 55 0 55 C0 36.85 0 18.7 0 0 Z " fill="#808184" transform="translate(641,1692)"/>
<path d="M0 0 C3.63 0 7.26 0 11 0 C11.66 1.98 12.32 3.96 13 6 C13.721875 5.38125 14.44375 4.7625 15.1875 4.125 C21.64043509 -0.75055095 28.15050308 -0.84884095 36 0 C42.35462645 1.71019318 46.08459461 4.48301671 49.5625 10.0625 C52.72556545 15.87788096 53.14181343 20.70520412 53.09765625 27.265625 C53.0962413 28.05902283 53.09482635 28.85242065 53.09336853 29.66986084 C53.08778415 32.19661272 53.07523454 34.72327504 53.0625 37.25 C53.05748298 38.96614455 53.05292043 40.68229049 53.04882812 42.3984375 C53.03781984 46.59899269 53.02056596 50.79948117 53 55 C49.04 55 45.08 55 41 55 C40.98541748 54.1028125 40.97083496 53.205625 40.95581055 52.28125 C40.8943692 48.918693 40.8201487 45.55690297 40.73754883 42.19482422 C40.70451197 40.74603719 40.67641545 39.29712801 40.65356445 37.84814453 C40.92169369 24.93408996 40.92169369 24.93408996 35 14.0625 C30.90935269 11.88934362 27.5813183 11.61175269 23 12 C18.68487129 14.32353084 15.03310537 16.87566372 13.44555664 21.67675781 C12.83723363 24.84870399 12.77620306 27.943779 12.68359375 31.171875 C12.66281265 31.8542926 12.64203156 32.53671021 12.62062073 33.23980713 C12.55547948 35.40977356 12.49640596 37.57985624 12.4375 39.75 C12.39428103 41.22527221 12.35066568 42.70053287 12.30664062 44.17578125 C12.19983482 47.78373166 12.09846847 51.39181133 12 55 C8.04 55 4.08 55 0 55 C0 36.85 0 18.7 0 0 Z " fill="#808184" transform="translate(1315,1692)"/>
<path d="M0 0 C0.928125 0.8971875 0.928125 0.8971875 1.875 1.8125 C0.52478174 6.23139613 -1.38615668 8.15595343 -5.125 10.8125 C-6.1975 10.1525 -7.27 9.4925 -8.375 8.8125 C-13.66040642 6.16979679 -19.33700497 5.68797525 -25.125 6.8125 C-27.4758841 8.72380645 -27.4758841 8.72380645 -29.125 10.8125 C-28.14419972 13.48740987 -27.55955085 14.59522458 -24.96875 15.890625 C-21.73170461 16.93999686 -18.69431314 17.32210012 -15.3125 17.6875 C-8.13184331 18.65745258 -3.14988426 20.17542141 2.3125 24.9375 C5.28095855 30.39946373 5.46500289 35.6954308 3.8125 41.625 C0.225157 47.52675783 -4.06164671 50.39313139 -10.57421875 52.30859375 C-19.75202626 54.12166751 -29.43802228 53.33748619 -37.48828125 48.34765625 C-42.7792887 44.50392259 -42.7792887 44.50392259 -44.125 41.8125 C-42.145 39.1725 -40.165 36.5325 -38.125 33.8125 C-36.12029058 34.81485471 -34.11551816 35.81740759 -32.125 36.84765625 C-31.465 37.18667969 -30.805 37.52570313 -30.125 37.875 C-29.465 38.21660156 -28.805 38.55820313 -28.125 38.91015625 C-23.79452187 40.86394619 -19.86551601 41.13943214 -15.125 40.8125 C-11.77338754 39.43035878 -11.77338754 39.43035878 -9.125 37.8125 C-9.125 35.5025 -9.125 33.1925 -9.125 30.8125 C-9.72973145 30.70703857 -10.33446289 30.60157715 -10.95751953 30.49291992 C-13.72347962 30.00491835 -16.4866555 29.50259242 -19.25 29 C-20.20132813 28.83435547 -21.15265625 28.66871094 -22.1328125 28.49804688 C-29.29699515 27.17963826 -35.48160312 25.69470532 -40.14453125 19.61328125 C-42.74915299 14.8294939 -42.49191916 10.18844684 -41.125 5.0625 C-37.86086716 -0.24171586 -34.19951842 -2.46141855 -28.375 -4.5 C-18.59496939 -6.46355827 -8.32631958 -5.82842371 0 0 Z " fill="#808184" transform="translate(1017.125,1696.1875)"/>
<path d="M0 0 C0.804375 0.598125 1.60875 1.19625 2.4375 1.8125 C0.91041037 5.24845166 -1.16177045 7.93162454 -3.5625 10.8125 C-4.119375 10.52375 -4.67625 10.235 -5.25 9.9375 C-9.90465287 7.67307428 -13.38772362 6.55216809 -18.625 6.625 C-19.64722656 6.63144531 -20.66945313 6.63789062 -21.72265625 6.64453125 C-24.16322799 6.78888419 -26.23089596 7.11357793 -28.5625 7.8125 C-28.2325 10.1225 -27.9025 12.4325 -27.5625 14.8125 C-22.32200067 16.7255684 -17.06490619 17.67691449 -11.57226562 18.4921875 C-5.56549948 19.50579329 -0.60041363 21.27448487 3.34765625 26.19140625 C5.33492667 30.97082723 5.0501701 35.73904088 4.4375 40.8125 C2.14816458 45.74337629 -0.80573495 48.25116497 -5.5625 50.8125 C-15.31730412 54.11921326 -26.05586296 53.96449509 -35.5625 49.8125 C-38.503982 47.71809035 -41.06925757 45.42004581 -43.5625 42.8125 C-42.03889094 39.71228679 -40.36428638 36.76087771 -38.5625 33.8125 C-35.52121087 34.91842332 -32.77577296 36.22987594 -30 37.875 C-24.01748227 41.24696454 -18.32555401 41.61314979 -11.625 40.1875 C-9.21869146 38.91383069 -9.21869146 38.91383069 -8.75 35.6875 C-8.688125 34.73875 -8.62625 33.79 -8.5625 32.8125 C-12.90290717 29.71343216 -16.73787352 29.12611984 -21.875 28.4375 C-29.62954737 27.22837785 -35.14380575 25.55169684 -40.5625 19.625 C-42.0935527 15.31891427 -42.20715044 11.32505311 -41.5625 6.8125 C-38.6895641 0.84563313 -34.4917568 -2.01579728 -28.4375 -4.4375 C-18.28912309 -6.40170198 -8.76564541 -5.74159991 0 0 Z " fill="#808184" transform="translate(1514.5625,1696.1875)"/>
<path d="M0 0 C0.804375 0.598125 1.60875 1.19625 2.4375 1.8125 C0.91041037 5.24845166 -1.16177045 7.93162454 -3.5625 10.8125 C-4.119375 10.52375 -4.67625 10.235 -5.25 9.9375 C-9.90465287 7.67307428 -13.38772362 6.55216809 -18.625 6.625 C-19.64722656 6.63144531 -20.66945313 6.63789062 -21.72265625 6.64453125 C-24.16322799 6.78888419 -26.23089596 7.11357793 -28.5625 7.8125 C-28.2325 10.1225 -27.9025 12.4325 -27.5625 14.8125 C-22.32200067 16.7255684 -17.06490619 17.67691449 -11.57226562 18.4921875 C-5.56549948 19.50579329 -0.60041363 21.27448487 3.34765625 26.19140625 C5.33492667 30.97082723 5.0501701 35.73904088 4.4375 40.8125 C2.14816458 45.74337629 -0.80573495 48.25116497 -5.5625 50.8125 C-15.28499626 54.10826144 -25.06925744 53.74303552 -34.5625 49.8125 C-37.99524397 47.81526715 -40.90363441 45.7667951 -43.5625 42.8125 C-42.06413895 39.70051935 -40.36316242 36.7590385 -38.5625 33.8125 C-35.52121087 34.91842332 -32.77577296 36.22987594 -30 37.875 C-24.01748227 41.24696454 -18.32555401 41.61314979 -11.625 40.1875 C-9.21869146 38.91383069 -9.21869146 38.91383069 -8.75 35.6875 C-8.688125 34.73875 -8.62625 33.79 -8.5625 32.8125 C-12.90290717 29.71343216 -16.73787352 29.12611984 -21.875 28.4375 C-29.62954737 27.22837785 -35.14380575 25.55169684 -40.5625 19.625 C-42.0935527 15.31891427 -42.20715044 11.32505311 -41.5625 6.8125 C-38.6895641 0.84563313 -34.4917568 -2.01579728 -28.4375 -4.4375 C-18.28912309 -6.40170198 -8.76564541 -5.74159991 0 0 Z " fill="#808184" transform="translate(1784.5625,1696.1875)"/>
<path d="M0 0 C4.62 0 9.24 0 14 0 C14.37809814 0.96824707 14.75619629 1.93649414 15.14575195 2.93408203 C16.5574576 6.54701591 17.97288425 10.15848254 19.3894043 13.76953125 C20.00043715 15.32870737 20.61047793 16.88827268 21.21948242 18.44824219 C22.09810181 20.69831245 22.98035143 22.94693072 23.86328125 25.1953125 C24.13215652 25.8861795 24.4010318 26.57704651 24.67805481 27.28884888 C26.26000584 31.30531296 28.00862091 35.16339807 30 39 C30.41511841 37.91283691 30.41511841 37.91283691 30.83862305 36.80371094 C32.11973236 33.45176373 33.40360291 30.10088034 34.6875 26.75 C35.12255859 25.61046875 35.55761719 24.4709375 36.00585938 23.296875 C44.28175403 1.71824597 44.28175403 1.71824597 46 0 C48.18639453 -0.07258946 50.37500389 -0.08373783 52.5625 -0.0625 C54.35880859 -0.04896484 54.35880859 -0.04896484 56.19140625 -0.03515625 C57.11824219 -0.02355469 58.04507812 -0.01195312 59 0 C58.40280319 3.42226904 57.53411323 6.42540596 56.17407227 9.61914062 C55.80020889 10.50355835 55.42634552 11.38797607 55.04115295 12.29919434 C54.63698654 13.24202271 54.23282013 14.18485107 53.81640625 15.15625 C53.40083969 16.13613892 52.98527313 17.11602783 52.55711365 18.12561035 C51.23000816 21.25231252 49.89642644 24.37620255 48.5625 27.5 C47.23360622 30.62440366 45.90601997 33.74936043 44.57859802 36.87438965 C43.75283708 38.81702772 42.92594745 40.7591865 42.09779358 42.70080566 C41.72077805 43.58522339 41.34376251 44.46964111 40.95532227 45.38085938 C40.62524673 46.15409546 40.2951712 46.92733154 39.95509338 47.72399902 C38.94216749 50.13781567 37.97220189 52.56949528 37 55 C32.38 55 27.76 55 23 55 C18.27079177 45.87204064 14.17708236 36.59221624 10.24853516 27.09838867 C9.24345817 24.67170523 8.2295907 22.2488253 7.21484375 19.82617188 C6.56458087 18.26323845 5.91482308 16.70009476 5.265625 15.13671875 C4.96666321 14.42303635 4.66770142 13.70935394 4.35968018 12.9740448 C2.59972667 8.70264484 1.1880523 4.46540024 0 0 Z " fill="#808184" transform="translate(1221,1692)"/>
<path d="M0 0 C4.29 0 8.58 0 13 0 C17.13519199 7.70831906 20.13706924 15.8438253 23.25 24 C23.80952828 25.45717244 24.36942109 26.91420496 24.9296875 28.37109375 C26.29066842 31.91246258 27.64669526 35.45569107 29 39 C32.68689119 30.91926519 35.97015958 22.6887751 39.25 14.4375 C39.80973393 13.03313859 40.36962855 11.6288412 40.9296875 10.22460938 C42.28860862 6.81725539 43.64422819 3.40861497 45 0 C49.62 0 54.24 0 59 0 C56.85264805 6.72214523 54.34364692 13.19419582 51.5859375 19.6875 C50.96327499 21.16307373 50.96327499 21.16307373 50.32803345 22.66845703 C49.4573057 24.72969643 48.58491667 26.79023478 47.7109375 28.85009766 C46.36792415 32.01668359 45.03126012 35.18589633 43.6953125 38.35546875 C42.84672681 40.36213679 41.99778149 42.3686528 41.1484375 44.375 C40.74740814 45.32592529 40.34637878 46.27685059 39.93319702 47.2565918 C39.3772435 48.56430542 39.3772435 48.56430542 38.81005859 49.8984375 C38.48379486 50.66849121 38.15753113 51.43854492 37.82138062 52.23193359 C37 54 37 54 36 55 C33.64686445 55.07271741 31.29166332 55.08370868 28.9375 55.0625 C27.64714844 55.05347656 26.35679687 55.04445313 25.02734375 55.03515625 C24.02832031 55.02355469 23.02929688 55.01195312 22 55 C21.76862839 54.45178085 21.53725677 53.90356171 21.2988739 53.33872986 C18.88185339 47.61187144 16.46456315 41.88512693 14.04711914 36.15844727 C13.14600882 34.02371062 12.24496634 31.88894533 11.34399414 29.75415039 C10.04591596 26.67847204 8.74759058 23.60289814 7.44921875 20.52734375 C7.0491008 19.57915268 6.64898285 18.63096161 6.23674011 17.65403748 C5.85657242 16.75363235 5.47640472 15.85322723 5.0847168 14.92553711 C4.55060684 13.65599686 4.55060684 13.65599686 4.00570679 12.36080933 C3.36932145 10.86695002 2.7211948 9.37799164 2.05703735 7.89627075 C0.78841249 5.06051287 0 3.14966785 0 0 Z " fill="#808184" transform="translate(547,1692)"/>
<path d="M0 0 C4.29 0 8.58 0 13 0 C17.17819843 7.98279883 20.52885001 16.15532012 23.75 24.5625 C24.72067219 27.08593153 25.69548238 29.60767325 26.671875 32.12890625 C27.0956543 33.23306885 27.51943359 34.33723145 27.95605469 35.47485352 C28.76803149 37.89580134 28.76803149 37.89580134 30 39 C30.51385254 37.65421875 30.51385254 37.65421875 31.03808594 36.28125 C32.32368731 32.91752362 33.61468351 29.55588861 34.90722656 26.19482422 C35.46336253 24.74648634 36.01808067 23.29760315 36.57128906 21.84814453 C42.22953899 7.02843217 42.22953899 7.02843217 46 0 C50.29 0 54.58 0 59 0 C56.4617324 9.57836831 52.51665215 18.44332001 48.5625 27.5 C47.22831647 30.57198561 45.89710395 33.64525308 44.56640625 36.71875 C44.25063629 37.44666748 43.93486633 38.17458496 43.60952759 38.92456055 C41.30745191 44.24578062 39.11146381 49.5998368 37 55 C32.38 55 27.76 55 23 55 C18.33876375 45.9450909 14.26686295 36.77806749 10.375 27.375 C9.81026626 26.02067881 9.24516339 24.66651148 8.6796875 23.3125 C7.1089591 19.54607795 5.55240801 15.7740114 4 12 C3.36239746 10.45747559 3.36239746 10.45747559 2.71191406 8.88378906 C2.34549805 7.9862793 1.97908203 7.08876953 1.6015625 6.1640625 C1.28783691 5.39787598 0.97411133 4.63168945 0.65087891 3.84228516 C0 2 0 2 0 0 Z " fill="#808184" transform="translate(849,1692)"/>
<path d="M0 0 C80.52 0 161.04 0 244 0 C244 1.65 244 3.3 244 5 C163.48 5 82.96 5 0 5 C0 3.35 0 1.7 0 0 Z " fill="#808184" transform="translate(74,1716)"/>
<path d="M0 0 C80.19 0 160.38 0 243 0 C243 1.65 243 3.3 243 5 C162.81 5 82.62 5 0 5 C0 3.35 0 1.7 0 0 Z " fill="#808184" transform="translate(1891,1716)"/>
<path d="M0 0 C4.29 0 8.58 0 13 0 C13 25.41 13 50.82 13 77 C8.71 77 4.42 77 0 77 C0 51.59 0 26.18 0 0 Z " fill="#808184" transform="translate(801,1670)"/>
<path d="M0 0 C3.96 0 7.92 0 12 0 C12 25.41 12 50.82 12 77 C8.04 77 4.08 77 0 77 C0 51.59 0 26.18 0 0 Z " fill="#808184" transform="translate(1655,1670)"/>
<path d="M0 0 C4.29 0 8.58 0 13 0 C13 18.15 13 36.3 13 55 C8.71 55 4.42 55 0 55 C0 36.85 0 18.7 0 0 Z " fill="#808184" transform="translate(614,1692)"/>
<path d="M0 0 C3.96 0 7.92 0 12 0 C12 18.15 12 36.3 12 55 C8.04 55 4.08 55 0 55 C0 36.85 0 18.7 0 0 Z " fill="#808184" transform="translate(1628,1692)"/>
<path d="M0 0 C3.96 0 7.92 0 12 0 C12 18.15 12 36.3 12 55 C8.04 55 4.08 55 0 55 C0 36.85 0 18.7 0 0 Z " fill="#808184" transform="translate(1289,1692)"/>
<path d="M0 0 C3.96 0 7.92 0 12 0 C12 18.15 12 36.3 12 55 C8.04 55 4.08 55 0 55 C0 36.85 0 18.7 0 0 Z " fill="#808184" transform="translate(828,1692)"/>
<path d="M0 0 C3 2 3 2 3.83984375 4.6328125 C4.03671595 8.77193054 2.98013904 12.05514755 1.5625 15.875 C1.31951172 16.56335937 1.07652344 17.25171875 0.82617188 17.9609375 C0.22972474 19.64502353 -0.38345475 21.3231676 -1 23 C-3.64 23 -6.28 23 -9 23 C-8.125 15.375 -8.125 15.375 -7 12 C-8.32 11.34 -9.64 10.68 -11 10 C-11.35706695 3.69181722 -11.35706695 3.69181722 -10 1.0625 C-6.83245911 -0.6202561 -3.5086342 -0.54468716 0 0 Z " fill="#808184" transform="translate(1042,1735)"/>
<path d="M0 0 C2.4375 1.625 2.4375 1.625 4 4 C4.5625 6.9375 4.5625 6.9375 4 10 C1.9375 12.9375 1.9375 12.9375 -1 15 C-4.54361243 15 -6.86591591 14.65850044 -9.9375 12.875 C-11.6712306 9.81547541 -11.42145216 7.43182475 -11 4 C-8.11188513 -0.5054592 -5.11821063 -0.73117295 0 0 Z " fill="#808184" transform="translate(838,1670)"/>
<path d="M0 0 C2.4375 1.625 2.4375 1.625 4 4 C4.5625 6.9375 4.5625 6.9375 4 10 C1.9375 12.9375 1.9375 12.9375 -1 15 C-4.54361243 15 -6.86591591 14.65850044 -9.9375 12.875 C-11.6712306 9.81547541 -11.42145216 7.43182475 -11 4 C-8.11188513 -0.5054592 -5.11821063 -0.73117295 0 0 Z " fill="#808184" transform="translate(624,1670)"/>
<path d="M0 0 C2.5 2.0625 2.5 2.0625 4 5 C4 8.80284671 3.7968187 11.01930006 1.375 14 C-2.08383253 15.45635054 -4.41298371 14.91305869 -8 14 C-9.9375 12.875 -9.9375 12.875 -11 11 C-11.49573337 7.10495209 -11.58016848 4.90506283 -9.4375 1.5625 C-6.03280512 -0.61999672 -3.96569988 -0.63734462 0 0 Z " fill="#808184" transform="translate(1638,1670)"/>
<path d="M0 0 C2.4375 1.5625 2.4375 1.5625 4 4 C4.5625 7.5 4.5625 7.5 4 11 C1.9375 13.5 1.9375 13.5 -1 15 C-4.80284671 15 -7.01930006 14.7968187 -10 12.375 C-11.45635054 8.91616747 -10.91305869 6.58701629 -10 3 C-7.67133148 -1.01048467 -4.26353269 -0.52359173 0 0 Z " fill="#808184" transform="translate(1298,1670)"/>
</svg>
